<?xml version="1.0" encoding="utf-8"?>
<!-- Generator: Adobe Illustrator 27.5.0, SVG Export Plug-In . SVG Version: 6.00 Build 0)  -->
<svg version="1.1" xmlns="http://www.w3.org/2000/svg" xmlns:xlink="http://www.w3.org/1999/xlink" x="0px" y="0px"
	 viewBox="0 0 500 500" style="enable-background:new 0 0 500 500;" xml:space="preserve">
<g id="BACKGROUND">
	<rect style="fill:#FFFFFF;" width="500" height="500"/>
	<g>
		<path style="fill:#D5F2F9;" d="M237.816,463.541c-116.175,0-183.654-55.503-194.784-179.155S99.38,67.293,210.685,47.621
			s177.393-9.836,230.263,82.2c52.87,92.036,21.565,245.386-16.696,291.053S327.556,463.541,237.816,463.541z"/>
		<path style="fill:#D5F2F9;" d="M49.127,124.2c-0.773,2.961-1.229,6.085-0.592,9.078c0.638,2.993,2.529,5.847,5.361,7.007
			c2.976,1.219,6.481,0.379,9.168-1.389c2.687-1.768,4.716-4.351,6.671-6.905c3.225-4.211,6.421-8.531,8.42-13.444
			c1.25-3.073,2.005-6.543,0.969-9.694c-0.984-2.992-3.627-5.377-6.703-6.051C60.972,100.296,51.493,115.134,49.127,124.2z"/>
		<path style="fill:#D5F2F9;" d="M40.358,152.455c-2.657,2.59-4.594,6.755-4.786,9.697c-0.143,2.187,0.287,4.595,1.932,6.043
			c2.02,1.778,5.198,1.486,7.589,0.25c3.546-1.833,6.047-5.549,6.41-9.524c0.203-2.227-0.274-4.59-1.696-6.315
			C46.647,148.775,43.116,149.767,40.358,152.455z"/>
		<path style="fill:#D5F2F9;" d="M437.206,420.684c-1.306,2.952-2.496,6.484-0.856,9.265c1.858,3.151,6.37,3.508,9.863,2.423
			c4.992-1.551,9.09-5.152,12.545-9.075c5.687-6.456,10.074-14.054,12.822-22.207c4.32-12.818-8.812-22.03-18.466-11.815
			c-3.973,4.205-5.279,10.054-7.599,15.178C443.007,409.988,439.67,415.114,437.206,420.684z"/>
	</g>
</g>
<g id="OBJECTS">
	<g>
		<polygon style="fill:#9DC9DD;" points="104.408,276.415 137.993,242.061 104.209,263.999 		"/>
		<polygon style="fill:#FFFFFF;" points="137.993,242.061 93.39,249.772 102.007,261.42 132.2,245.618 106.05,265.922 
			116.297,277.802 		"/>
		<polygon style="fill:#697BAE;" points="102.07,260.976 104.408,276.415 106.05,265.922 132.2,245.618 		"/>
	</g>
	<g>
		<polygon style="fill:#9DC9DD;" points="208.783,85.93 241.682,76.513 213.038,78.176 		"/>
		<polygon style="fill:#FFFFFF;" points="241.682,76.513 211.36,65.556 212.585,75.804 236.842,76.672 213.499,80.016 
			215.651,90.981 		"/>
		<polygon style="fill:#697BAE;" points="212.781,75.551 208.783,85.93 213.499,80.016 236.842,76.672 		"/>
	</g>
	<g>
		
			<ellipse transform="matrix(0.7071 -0.7071 0.7071 0.7071 -51.4119 264.2245)" style="fill:#9DC9DD;" cx="293.241" cy="194.172" rx="110.423" ry="110.423"/>
		<path style="fill:#74A7CB;" d="M217.153,114.147c-44.196,42.022-45.959,111.916-3.936,156.113
			c28.195,29.653,68.935,40.202,106.044,31.243c0.27-2.016,0.386-4.052,0.333-6.087c-0.191-7.323-3.364-15.54-10.325-17.823
			c-2.507-0.822-5.279-0.783-7.656-1.927c-10.614-5.107-2.488-25.16-12.578-31.237c-6.536-3.937-16.562,1.274-21.924-4.155
			c-4.741-4.801-1.144-13.222-3.74-19.45c-1.55-3.719-5.103-6.155-7.583-9.331c-2.48-3.175-3.586-8.37-0.411-10.852
			c1.131-0.884,2.607-1.235,3.742-2.115c3.48-2.698,1.757-8.548-1.591-11.409c-3.348-2.86-7.822-4.22-10.971-7.3
			c-5.531-5.41-5.301-14.679-1.903-21.631c3.398-6.952,9.273-12.301,14.457-18.045c5.183-5.744,9.966-12.544,10.291-20.275
			c0.305-7.248-3.344-14.004-6.886-20.334c-1.813-3.24-3.625-6.48-5.438-9.72C242.616,94.815,228.966,102.915,217.153,114.147z"/>
		<path style="fill:#74A7CB;" d="M373.266,118.084c-14.511-15.262-32.346-25.461-51.298-30.547
			c-4.178,3.757-7.884,7.947-9.915,13.123c-3.042,7.753-0.648,18.302,7.12,21.307c1.858,0.719,3.936,0.992,5.535,2.179
			c5.33,3.959,0.767,13.034,3.969,18.851c2.867,5.209,10.197,5.287,16.111,4.674c3.738-0.387,7.477-0.774,11.215-1.162
			c3.528-0.365,7.167-0.721,10.561,0.309c3.394,1.03,6.514,3.813,6.806,7.347c0.491,5.943-6.263,9.384-11.323,12.54
			c-7.722,4.816-13.36,12.27-18.816,19.554c-3.063,4.089-6.282,8.686-5.86,13.778c0.355,4.282,3.292,8.236,2.738,12.497
			c-0.835,6.423-8.726,9.341-11.677,15.108c-2.551,4.985-0.892,11.132,1.877,15.999c2.769,4.867,6.594,9.148,8.728,14.325
			c2.981,7.231,2.406,15.589,5.649,22.706c1.388,3.047,3.445,5.684,5.94,7.858c6.599-4.021,12.876-8.793,18.704-14.334
			C413.526,232.174,415.288,162.28,373.266,118.084z"/>
		<path style="fill:#74A7CB;" d="M316.913,182.563c-0.242,2.455-0.033,5.146,1.596,6.95c1.357,1.504,3.52,2.12,5.57,1.953
			c2.05-0.167,4.004-1.036,5.772-2.123c3.842-2.363,6.949-5.755,9.779-9.271c2.353-2.924,4.613-6.093,5.398-9.734
			c0.785-3.641-0.264-7.866-3.381-9.796c-4.969-3.077-12.686,0.918-16.452,4.692C320.799,169.64,317.513,176.477,316.913,182.563z"
			/>
	</g>
	<g>
		<g>
			<path style="fill:#74A7CB;" d="M142.502,370.323c-1.186,0-2.155,0.97-2.155,2.155v26.917c0,1.185,0.97,2.155,2.155,2.155
				c1.185,0,2.155-0.97,2.155-2.155v-26.917C144.657,371.293,143.687,370.323,142.502,370.323z"/>
			<path style="fill:#74A7CB;" d="M163.681,370.323c-1.186,0-2.155,0.97-2.155,2.155v26.917c0,1.185,0.97,2.155,2.155,2.155
				c1.185,0,2.155-0.97,2.155-2.155v-26.917C165.836,371.293,164.866,370.323,163.681,370.323z"/>
			<path style="fill:#74A7CB;" d="M184.86,370.323c-1.186,0-2.155,0.97-2.155,2.155v26.917c0,1.185,0.97,2.155,2.155,2.155
				c1.185,0,2.155-0.97,2.155-2.155v-26.917C187.015,371.293,186.045,370.323,184.86,370.323z"/>
			<path style="fill:#74A7CB;" d="M206.039,370.323c-1.186,0-2.155,0.97-2.155,2.155v26.917c0,1.185,0.97,2.155,2.155,2.155
				s2.155-0.97,2.155-2.155v-26.917C208.194,371.293,207.224,370.323,206.039,370.323z"/>
			<path style="fill:#74A7CB;" d="M227.218,370.323c-1.186,0-2.155,0.97-2.155,2.155v26.917c0,1.185,0.97,2.155,2.155,2.155
				s2.155-0.97,2.155-2.155v-26.917C229.373,371.293,228.403,370.323,227.218,370.323z"/>
			<path style="fill:#74A7CB;" d="M248.397,370.323c-1.186,0-2.155,0.97-2.155,2.155v26.917c0,1.185,0.97,2.155,2.155,2.155
				s2.155-0.97,2.155-2.155v-26.917C250.552,371.293,249.582,370.323,248.397,370.323z"/>
			<path style="fill:#74A7CB;" d="M269.575,370.323c-1.185,0-2.155,0.97-2.155,2.155v26.917c0,1.185,0.97,2.155,2.155,2.155
				c1.186,0,2.155-0.97,2.155-2.155v-26.917C271.731,371.293,270.761,370.323,269.575,370.323z"/>
			<path style="fill:#74A7CB;" d="M290.754,370.323c-1.186,0-2.155,0.97-2.155,2.155v26.917c0,1.185,0.97,2.155,2.155,2.155
				c1.185,0,2.155-0.97,2.155-2.155v-26.917C292.91,371.293,291.94,370.323,290.754,370.323z"/>
			<path style="fill:#74A7CB;" d="M311.933,370.323c-1.186,0-2.155,0.97-2.155,2.155v26.917c0,1.185,0.97,2.155,2.155,2.155
				c1.185,0,2.155-0.97,2.155-2.155v-26.917C314.089,371.293,313.119,370.323,311.933,370.323z"/>
			<path style="fill:#74A7CB;" d="M333.112,370.323c-1.186,0-2.155,0.97-2.155,2.155v26.917c0,1.185,0.97,2.155,2.155,2.155
				c1.185,0,2.155-0.97,2.155-2.155v-26.917C335.267,371.293,334.298,370.323,333.112,370.323z"/>
			<path style="fill:#74A7CB;" d="M354.291,370.323c-1.185,0-2.155,0.97-2.155,2.155v26.917c0,1.185,0.97,2.155,2.155,2.155
				c1.186,0,2.155-0.97,2.155-2.155v-26.917C356.446,371.293,355.477,370.323,354.291,370.323z"/>
			<path style="fill:#74A7CB;" d="M375.47,370.323c-1.185,0-2.155,0.97-2.155,2.155v26.917c0,1.185,0.97,2.155,2.155,2.155
				c1.186,0,2.155-0.97,2.155-2.155v-26.917C377.625,371.293,376.655,370.323,375.47,370.323z"/>
			<path style="fill:#74A7CB;" d="M163.568,370.851c-0.871,0.424-1.646,1.071-2.494,1.549c-0.9,0.507-1.835,0.954-2.8,1.322
				c-1.862,0.709-3.835,1.136-5.831,1.146c-3.795,0.02-7.396-1.461-10.074-4.139c-0.412-0.412-1.211,0.151-0.836,0.645
				c2.481,3.267,6.529,4.966,10.573,5.063c2.179,0.052,4.379-0.357,6.425-1.097c1.989-0.72,4.452-1.781,5.91-3.359
				C165.009,371.366,164.299,370.496,163.568,370.851z"/>
			<path style="fill:#74A7CB;" d="M185.056,370.851c-0.871,0.424-1.646,1.071-2.494,1.549c-0.899,0.507-1.834,0.954-2.8,1.322
				c-1.862,0.709-3.835,1.136-5.831,1.146c-3.795,0.02-7.396-1.461-10.074-4.139c-0.412-0.412-1.212,0.151-0.836,0.645
				c2.481,3.267,6.529,4.966,10.573,5.063c2.179,0.052,4.379-0.357,6.425-1.097c1.989-0.72,4.452-1.781,5.91-3.359
				C186.497,371.366,185.787,370.496,185.056,370.851z"/>
			<path style="fill:#74A7CB;" d="M206.506,370.851c-0.871,0.424-1.646,1.071-2.494,1.549c-0.899,0.507-1.835,0.954-2.8,1.322
				c-1.862,0.709-3.835,1.136-5.831,1.146c-3.795,0.02-7.396-1.461-10.073-4.139c-0.412-0.412-1.212,0.151-0.836,0.645
				c2.48,3.267,6.528,4.966,10.573,5.063c2.179,0.052,4.379-0.357,6.425-1.097c1.989-0.72,4.452-1.781,5.91-3.359
				C207.947,371.366,207.237,370.496,206.506,370.851z"/>
			<path style="fill:#74A7CB;" d="M227.995,370.851c-0.871,0.424-1.646,1.071-2.494,1.549c-0.899,0.507-1.835,0.954-2.8,1.322
				c-1.862,0.709-3.835,1.136-5.832,1.146c-3.795,0.02-7.396-1.461-10.073-4.139c-0.412-0.412-1.212,0.151-0.836,0.645
				c2.48,3.267,6.528,4.966,10.573,5.063c2.179,0.052,4.379-0.357,6.425-1.097c1.989-0.72,4.452-1.781,5.91-3.359
				C229.436,371.366,228.725,370.496,227.995,370.851z"/>
			<path style="fill:#74A7CB;" d="M248.284,370.851c-0.871,0.424-1.646,1.071-2.494,1.549c-0.899,0.507-1.835,0.954-2.8,1.322
				c-1.862,0.709-3.835,1.136-5.831,1.146c-3.795,0.02-7.396-1.461-10.074-4.139c-0.412-0.412-1.212,0.151-0.836,0.645
				c2.481,3.267,6.528,4.966,10.573,5.063c2.179,0.052,4.379-0.357,6.425-1.097c1.989-0.72,4.452-1.781,5.91-3.359
				C249.725,371.366,249.015,370.496,248.284,370.851z"/>
			<path style="fill:#74A7CB;" d="M269.772,370.851c-0.871,0.424-1.646,1.071-2.494,1.549c-0.899,0.507-1.835,0.954-2.8,1.322
				c-1.862,0.709-3.835,1.136-5.831,1.146c-3.795,0.02-7.396-1.461-10.074-4.139c-0.412-0.412-1.212,0.151-0.836,0.645
				c2.48,3.267,6.528,4.966,10.573,5.063c2.179,0.052,4.379-0.357,6.425-1.097c1.989-0.72,4.452-1.781,5.91-3.359
				C271.213,371.366,270.503,370.496,269.772,370.851z"/>
			<path style="fill:#74A7CB;" d="M291.222,370.851c-0.871,0.424-1.646,1.071-2.494,1.549c-0.899,0.507-1.835,0.954-2.8,1.322
				c-1.862,0.709-3.835,1.136-5.832,1.146c-3.795,0.02-7.396-1.461-10.073-4.139c-0.412-0.412-1.212,0.151-0.836,0.645
				c2.48,3.267,6.528,4.966,10.573,5.063c2.179,0.052,4.379-0.357,6.425-1.097c1.989-0.72,4.452-1.781,5.91-3.359
				C292.663,371.366,291.953,370.496,291.222,370.851z"/>
			<path style="fill:#74A7CB;" d="M312.71,370.851c-0.871,0.424-1.646,1.071-2.494,1.549c-0.899,0.507-1.835,0.954-2.8,1.322
				c-1.862,0.709-3.835,1.136-5.831,1.146c-3.795,0.02-7.396-1.461-10.073-4.139c-0.412-0.412-1.212,0.151-0.836,0.645
				c2.48,3.267,6.528,4.966,10.573,5.063c2.179,0.052,4.379-0.357,6.425-1.097c1.989-0.72,4.452-1.781,5.91-3.359
				C314.151,371.366,313.441,370.496,312.71,370.851z"/>
			<path style="fill:#74A7CB;" d="M332.845,370.851c-0.871,0.424-1.646,1.071-2.494,1.549c-0.899,0.507-1.835,0.954-2.8,1.322
				c-1.862,0.709-3.835,1.136-5.832,1.146c-3.795,0.02-7.396-1.461-10.073-4.139c-0.412-0.412-1.212,0.151-0.836,0.645
				c2.48,3.267,6.528,4.966,10.573,5.063c2.179,0.052,4.379-0.357,6.425-1.097c1.989-0.72,4.452-1.781,5.91-3.359
				C334.286,371.366,333.576,370.496,332.845,370.851z"/>
			<path style="fill:#74A7CB;" d="M354.333,370.851c-0.871,0.424-1.646,1.071-2.494,1.549c-0.9,0.507-1.835,0.954-2.8,1.322
				c-1.862,0.709-3.835,1.136-5.831,1.146c-3.795,0.02-7.396-1.461-10.073-4.139c-0.412-0.412-1.211,0.151-0.836,0.645
				c2.481,3.267,6.529,4.966,10.573,5.063c2.179,0.052,4.379-0.357,6.425-1.097c1.989-0.72,4.452-1.781,5.91-3.359
				C355.774,371.366,355.064,370.496,354.333,370.851z"/>
			<path style="fill:#74A7CB;" d="M375.783,370.851c-0.871,0.424-1.646,1.071-2.494,1.549c-0.899,0.507-1.835,0.954-2.8,1.322
				c-1.862,0.709-3.835,1.136-5.831,1.146c-3.796,0.02-7.396-1.461-10.074-4.139c-0.412-0.412-1.212,0.151-0.836,0.645
				c2.48,3.267,6.529,4.966,10.573,5.063c2.179,0.052,4.379-0.357,6.425-1.097c1.989-0.72,4.452-1.781,5.91-3.359
				C377.224,371.366,376.514,370.496,375.783,370.851z"/>
		</g>
		<g>
			<path style="fill:#83BAA8;" d="M409.113,372.797c-0.066-5.891-1.191-11.68-2.903-17.303c-0.482-1.583-1.019-3.146-1.594-4.698
				c-0.543-1.465-1.061-3.119-1.962-4.407c-0.032-0.046-0.094-0.016-0.086,0.036c0.258,1.829,1.102,3.64,1.675,5.39
				c0.587,1.793,1.145,3.599,1.64,5.419c0.979,3.595,1.694,7.252,2.072,10.96c0.377,3.703,0.294,7.438,0.231,11.155
				c-0.034,1.976-0.098,3.952-0.093,5.929c0.005,1.836-0.184,3.813,0.153,5.622c0.043,0.234,0.418,0.228,0.466,0
				c0.295-1.396,0.214-2.903,0.253-4.325c0.042-1.544,0.07-3.087,0.077-4.632C409.052,378.896,409.147,375.845,409.113,372.797z"/>
			<path style="fill:#83BAA8;" d="M414.375,381.468c-1.076,2.207-1.907,4.526-2.697,6.847c-0.844,2.481-1.628,4.982-2.27,7.523
				c-0.201,0.797-0.41,1.604-0.609,2.416c0.068-4.048,0.506-8.082,1.226-12.131c0.58-3.263,1.234-6.521,1.933-9.761
				c1.266-5.864,2.811-11.753,5.344-17.211c1.412-3.043,3.261-5.803,4.832-8.753c0.026-0.048-0.034-0.092-0.074-0.057
				c-2.197,1.911-3.783,4.599-5.103,7.162c-1.387,2.695-2.497,5.542-3.441,8.419c-2.005,6.111-3.253,12.493-4.267,18.836
				c-0.3,1.876-0.587,3.755-0.832,5.639c-0.003,0.024-0.007,0.048-0.01,0.072c-0.058-0.937-0.123-1.873-0.207-2.808
				c-0.501-5.597-1.447-11.242-3.432-16.521c-1.042-2.77-2.177-5.863-4.383-7.907c-0.026-0.024-0.059,0.006-0.046,0.036
				c1.398,3.236,2.866,6.381,3.922,9.761c1.061,3.395,1.759,6.881,2.304,10.393c0.552,3.55,0.865,7.134,1.08,10.719
				c0.106,1.767,0.16,3.537,0.208,5.306c0,0.009,0,0.018,0,0.027c-0.156-0.419-0.315-0.827-0.463-1.212
				c-0.709-1.839-1.581-3.615-2.613-5.295c-1.954-3.181-4.609-6.492-7.926-8.295c-0.065-0.035-0.129,0.047-0.079,0.102
				c1.232,1.343,2.576,2.588,3.774,3.966c1.272,1.462,2.402,3.051,3.398,4.713c0.968,1.616,1.797,3.317,2.454,5.082
				c0.31,0.833,0.584,1.68,0.824,2.536c0.227,0.812,0.365,1.693,0.633,2.498c0.005,0.02,0.011,0.039,0.019,0.057
				c0.022,0.063,0.041,0.128,0.065,0.19c0.039,0.286,0.086,0.567,0.157,0.839c0.08,0.308,0.565,0.322,0.637,0
				c0.166-0.742,0.169-1.535,0.139-2.325c0.491-2.015,0.858-4.068,1.386-6.075c0.636-2.418,1.324-4.824,2.115-7.196
				c0.755-2.264,1.577-4.531,2.561-6.706c0.955-2.111,2.197-4.012,3.373-5.998c0.006-0.01-0.006-0.023-0.016-0.016
				C416.502,377.572,415.312,379.547,414.375,381.468z"/>
			<path style="fill:#83BAA8;" d="M431.281,353.518c1.533,0.034,4.782-0.768,4.183-2.99c-0.276-1.023-1.472-1.528-2.385-1.803
				c-1.156-0.348-2.383-0.365-3.571-0.2c-0.745,0.104-1.482,0.269-2.211,0.473c0.975-0.975,2.359-2.577,1.601-3.748
				c-0.908-1.403-3.512,0.141-4.499,0.738c-0.649,0.393-1.24,0.861-1.797,1.364c-0.061-1.133-0.511-2.246-1.378-3.073
				c-1.36-1.293-2.014,3.192-1.991,3.78c-0.633-0.425-1.343-0.739-2.125-0.918c-1.359-0.311-3.391-0.385-4.403,0.784
				c-0.963,1.113,0.012,2.231,1.147,2.593c0.892,0.285,1.841,0.455,2.801,0.547c-0.673,0.313-1.307,0.708-1.88,1.213
				c-0.95,0.838-2.618,2.984-1.816,4.338c0.823,1.389,3.147,0.059,4.107-0.45c0.81-0.43,1.553-0.96,2.239-1.555
				c-0.236,1.345-0.147,2.755,0.191,4.108c0.332,1.329,0.889,2.598,1.499,3.82c0.414,0.827,0.901,1.997,1.929,2.2
				c2.259,0.445,2.046-3.272,1.965-4.523c-0.058-0.904-0.193-1.795-0.392-2.67c0.46,0.461,0.948,0.895,1.467,1.289
				c1.393,1.06,3.81,2.799,5.673,1.981c0.863-0.379,1.256-1.295,1.003-2.195c-0.33-1.176-1.479-1.963-2.384-2.679
				c-1.44-1.139-2.944-2.178-4.497-3.144c0.61,0.084,1.221,0.168,1.831,0.26C428.811,353.242,430.044,353.49,431.281,353.518z"/>
			<path style="fill:#83BAA8;" d="M392.529,365.204c-1.283,0.029-4.002-0.643-3.5-2.503c0.231-0.856,1.232-1.279,1.996-1.509
				c0.968-0.291,1.994-0.305,2.988-0.167c0.623,0.087,1.24,0.225,1.85,0.396c-0.816-0.816-1.974-2.156-1.34-3.137
				c0.759-1.174,2.939,0.118,3.765,0.618c0.543,0.329,1.037,0.72,1.504,1.141c0.051-0.948,0.427-1.88,1.153-2.571
				c1.138-1.082,1.686,2.671,1.666,3.163c0.53-0.356,1.124-0.619,1.779-0.769c1.137-0.26,2.838-0.322,3.684,0.656
				c0.806,0.931-0.01,1.867-0.96,2.17c-0.747,0.238-1.54,0.381-2.344,0.458c0.563,0.262,1.094,0.592,1.573,1.015
				c0.795,0.702,2.191,2.497,1.519,3.63c-0.689,1.162-2.634,0.05-3.437-0.377c-0.678-0.36-1.3-0.803-1.874-1.301
				c0.198,1.126,0.123,2.305-0.16,3.438c-0.278,1.112-0.744,2.174-1.255,3.196c-0.346,0.692-0.754,1.671-1.614,1.841
				c-1.89,0.373-1.712-2.738-1.645-3.786c0.049-0.756,0.162-1.502,0.328-2.234c-0.385,0.386-0.793,0.749-1.228,1.079
				c-1.166,0.887-3.189,2.342-4.747,1.658c-0.722-0.317-1.051-1.084-0.84-1.837c0.276-0.984,1.238-1.643,1.995-2.242
				c1.205-0.953,2.464-1.823,3.763-2.631c-0.511,0.071-1.022,0.141-1.532,0.217C394.596,364.973,393.564,365.181,392.529,365.204z"
				/>
			<path style="fill:#83BAA8;" d="M398.836,347.968c-0.709,0.156-2.29,0.079-2.215-1.007c0.035-0.5,0.544-0.844,0.943-1.054
				c0.505-0.267,1.073-0.387,1.64-0.418c0.355-0.02,0.712-0.01,1.07,0.018c-0.541-0.364-1.33-0.981-1.085-1.594
				c0.294-0.734,1.643-0.255,2.156-0.067c0.337,0.123,0.654,0.287,0.959,0.469c-0.075-0.532,0.032-1.089,0.359-1.552
				c0.514-0.724,1.226,1.298,1.269,1.574c0.255-0.255,0.556-0.466,0.903-0.62c0.603-0.268,1.539-0.488,2.116-0.037
				c0.548,0.429,0.198,1.037-0.296,1.309c-0.389,0.214-0.813,0.379-1.251,0.509c0.341,0.084,0.672,0.209,0.984,0.392
				c0.518,0.303,1.488,1.147,1.238,1.849c-0.256,0.72-1.456,0.314-1.948,0.165c-0.415-0.126-0.809-0.304-1.181-0.518
				c0.232,0.603,0.319,1.266,0.286,1.925c-0.033,0.647-0.176,1.287-0.348,1.91c-0.117,0.422-0.236,1.009-0.695,1.197
				c-1.008,0.413-1.248-1.333-1.325-1.921c-0.055-0.425-0.074-0.851-0.061-1.275c-0.171,0.256-0.358,0.502-0.564,0.732
				c-0.55,0.619-1.514,1.647-2.453,1.437c-0.435-0.097-0.701-0.487-0.666-0.928c0.046-0.576,0.508-1.046,0.862-1.461
				c0.565-0.66,1.168-1.28,1.801-1.87c-0.276,0.095-0.552,0.189-0.826,0.288C399.958,347.615,399.408,347.843,398.836,347.968z"/>
			<path style="fill:#83BAA8;" d="M389.038,384.142c-1.138-0.253-3.391-1.435-2.545-2.967c0.389-0.705,1.365-0.861,2.088-0.898
				c0.917-0.047,1.826,0.163,2.673,0.501c0.531,0.212,1.045,0.468,1.547,0.751c-0.543-0.897-1.274-2.331-0.502-3.058
				c0.925-0.871,2.567,0.742,3.188,1.362c0.408,0.408,0.759,0.86,1.079,1.333c0.251-0.825,0.785-1.566,1.575-2.018
				c1.239-0.708,0.908,2.722,0.783,3.152c0.545-0.199,1.126-0.302,1.736-0.292c1.06,0.017,2.574,0.331,3.108,1.378
				c0.509,0.996-0.414,1.645-1.317,1.706c-0.711,0.048-1.442,0.002-2.168-0.105c0.44,0.353,0.837,0.76,1.168,1.237
				c0.549,0.792,1.391,2.678,0.553,3.533c-0.86,0.876-2.335-0.528-2.951-1.078c-0.52-0.465-0.972-0.991-1.371-1.555
				c-0.07,1.036-0.392,2.061-0.887,2.999c-0.486,0.921-1.128,1.757-1.8,2.548c-0.456,0.536-1.028,1.311-1.823,1.274
				c-1.749-0.081-0.917-2.787-0.63-3.697c0.207-0.656,0.469-1.29,0.774-1.9c-0.423,0.257-0.862,0.488-1.317,0.686
				c-1.221,0.529-3.322,1.375-4.548,0.433c-0.568-0.436-0.692-1.184-0.342-1.803c0.457-0.808,1.448-1.181,2.246-1.545
				c1.27-0.579,2.569-1.074,3.891-1.505c-0.466-0.049-0.932-0.097-1.399-0.141C390.912,384.387,389.957,384.346,389.038,384.142z"/>
			<path style="fill:#83BAA8;" d="M427.702,381.802c1.641,0.447,5.35,0.452,5.3-2.1c-0.024-1.174-1.176-2.038-2.084-2.577
				c-1.151-0.683-2.467-1.029-3.789-1.169c-0.829-0.088-1.666-0.107-2.505-0.082c1.309-0.789,3.227-2.142,2.725-3.605
				c-0.602-1.753-3.816-0.787-5.038-0.408c-0.803,0.249-1.564,0.595-2.298,0.987c0.237-1.235,0.051-2.553-0.661-3.674
				c-1.118-1.755-3.021,2.896-3.152,3.535c-0.568-0.627-1.247-1.154-2.042-1.556c-1.379-0.698-3.546-1.321-4.947-0.333
				c-1.333,0.94-0.584,2.404,0.541,3.097c0.884,0.545,1.859,0.982,2.868,1.337c-0.807,0.157-1.596,0.412-2.347,0.803
				c-1.246,0.648-3.615,2.511-3.113,4.183c0.514,1.715,3.371,0.905,4.54,0.613c0.987-0.246,1.928-0.618,2.825-1.075
				c-0.614,1.385-0.895,2.925-0.893,4.472c0.002,1.518,0.262,3.033,0.592,4.511c0.224,1.001,0.436,2.39,1.487,2.883
				c2.311,1.083,3.076-2.974,3.324-4.342c0.179-0.988,0.271-1.983,0.291-2.978c0.371,0.619,0.781,1.216,1.234,1.779
				c1.215,1.512,3.352,4.03,5.575,3.648c1.03-0.177,1.698-1.058,1.667-2.094c-0.041-1.354-1.067-2.508-1.849-3.519
				c-1.245-1.61-2.585-3.131-3.999-4.584c0.634,0.254,1.269,0.507,1.9,0.769C425.117,380.845,426.378,381.442,427.702,381.802z"/>
		</g>
		<g>
			<path style="fill:#83BAA8;" d="M109.945,363.205c0.079-7.057,1.427-13.992,3.478-20.729c0.577-1.896,1.221-3.769,1.91-5.628
				c0.651-1.756,1.271-3.736,2.351-5.279c0.038-0.055,0.112-0.019,0.103,0.044c-0.309,2.191-1.32,4.361-2.006,6.457
				c-0.703,2.148-1.371,4.311-1.965,6.492c-1.173,4.307-2.03,8.688-2.482,13.13c-0.452,4.436-0.353,8.911-0.277,13.363
				c0.041,2.368,0.118,4.734,0.111,7.103c-0.006,2.199,0.22,4.568-0.183,6.736c-0.052,0.28-0.501,0.273-0.559,0
				c-0.354-1.672-0.257-3.478-0.303-5.182c-0.05-1.85-0.084-3.698-0.092-5.549C110.017,370.511,109.903,366.857,109.945,363.205z"/>
			<path style="fill:#83BAA8;" d="M103.64,373.593c1.289,2.644,2.284,5.422,3.23,8.203c1.011,2.972,1.951,5.968,2.72,9.012
				c0.241,0.954,0.491,1.921,0.73,2.895c-0.081-4.849-0.607-9.683-1.469-14.533c-0.695-3.909-1.478-7.812-2.316-11.693
				c-1.517-7.025-3.367-14.08-6.402-20.618c-1.692-3.646-3.907-6.952-5.788-10.486c-0.031-0.058,0.04-0.111,0.089-0.069
				c2.631,2.289,4.532,5.509,6.113,8.581c1.662,3.229,2.992,6.639,4.122,10.086c2.401,7.321,3.896,14.967,5.112,22.565
				c0.359,2.248,0.703,4.498,0.997,6.755c0.004,0.028,0.009,0.058,0.012,0.087c0.07-1.122,0.148-2.244,0.248-3.364
				c0.601-6.706,1.733-13.468,4.112-19.793c1.248-3.318,2.608-7.024,5.251-9.472c0.031-0.029,0.071,0.007,0.055,0.043
				c-1.674,3.877-3.433,7.644-4.699,11.694c-1.271,4.067-2.107,8.244-2.761,12.45c-0.661,4.253-1.037,8.547-1.294,12.842
				c-0.127,2.117-0.192,4.237-0.249,6.356c0,0.01,0,0.021,0,0.032c0.187-0.502,0.377-0.99,0.555-1.452
				c0.849-2.204,1.894-4.331,3.13-6.343c2.341-3.811,5.521-7.777,9.495-9.937c0.078-0.043,0.154,0.057,0.094,0.122
				c-1.475,1.609-3.085,3.101-4.521,4.752c-1.524,1.752-2.878,3.655-4.071,5.646c-1.16,1.935-2.152,3.973-2.94,6.088
				c-0.372,0.998-0.7,2.012-0.986,3.038c-0.271,0.972-0.438,2.028-0.759,2.992c-0.006,0.025-0.013,0.047-0.023,0.069
				c-0.026,0.076-0.049,0.153-0.077,0.228c-0.046,0.342-0.103,0.68-0.188,1.005c-0.096,0.368-0.677,0.385-0.763,0
				c-0.199-0.889-0.203-1.839-0.166-2.785c-0.589-2.414-1.028-4.874-1.661-7.277c-0.762-2.896-1.586-5.779-2.534-8.62
				c-0.905-2.712-1.889-5.428-3.068-8.034c-1.144-2.529-2.632-4.807-4.041-7.185c-0.007-0.012,0.007-0.028,0.019-0.019
				C101.093,368.925,102.518,371.292,103.64,373.593z"/>
			<path style="fill:#83BAA8;" d="M83.387,340.109c-1.837,0.041-5.729-0.92-5.011-3.582c0.33-1.225,1.764-1.831,2.857-2.16
				c1.385-0.417,2.855-0.437,4.278-0.239c0.893,0.124,1.775,0.322,2.649,0.567c-1.167-1.168-2.826-3.087-1.918-4.49
				c1.087-1.681,4.207,0.169,5.389,0.885c0.778,0.47,1.485,1.031,2.153,1.634c0.073-1.357,0.612-2.69,1.65-3.681
				c1.63-1.549,2.413,3.824,2.385,4.528c0.759-0.509,1.609-0.885,2.546-1.1c1.628-0.373,4.062-0.461,5.274,0.939
				c1.154,1.333-0.014,2.673-1.374,3.107c-1.069,0.341-2.205,0.545-3.356,0.655c0.806,0.375,1.566,0.848,2.252,1.453
				c1.138,1.004,3.137,3.575,2.175,5.197c-0.986,1.664-3.771,0.071-4.921-0.539c-0.97-0.515-1.861-1.15-2.682-1.863
				c0.283,1.612,0.176,3.301-0.229,4.922c-0.398,1.592-1.064,3.112-1.796,4.576c-0.495,0.991-1.08,2.393-2.31,2.635
				c-2.706,0.533-2.451-3.92-2.355-5.419c0.07-1.083,0.232-2.15,0.47-3.199c-0.551,0.552-1.136,1.072-1.758,1.544
				c-1.668,1.269-4.565,3.353-6.796,2.374c-1.034-0.454-1.505-1.551-1.202-2.63c0.396-1.409,1.772-2.352,2.856-3.209
				c1.725-1.364,3.527-2.61,5.387-3.766c-0.731,0.101-1.463,0.201-2.193,0.311C86.347,339.779,84.87,340.076,83.387,340.109z"/>
			<path style="fill:#83BAA8;" d="M129.812,354.109c1.537,0.034,4.794-0.77,4.193-2.998c-0.277-1.025-1.476-1.532-2.391-1.807
				c-1.159-0.349-2.389-0.366-3.58-0.2c-0.747,0.104-1.485,0.27-2.216,0.474c0.977-0.978,2.365-2.583,1.605-3.758
				c-0.91-1.407-3.521,0.141-4.51,0.74c-0.651,0.394-1.243,0.863-1.801,1.367c-0.061-1.136-0.512-2.252-1.381-3.08
				c-1.364-1.296-2.02,3.2-1.995,3.789c-0.635-0.426-1.346-0.741-2.131-0.921c-1.362-0.312-3.399-0.386-4.414,0.786
				c-0.965,1.115,0.012,2.237,1.15,2.6c0.895,0.285,1.845,0.456,2.809,0.548c-0.674,0.314-1.311,0.709-1.885,1.216
				c-0.953,0.841-2.625,2.991-1.82,4.349c0.825,1.393,3.155,0.06,4.118-0.451c0.812-0.431,1.557-0.962,2.245-1.559
				c-0.237,1.349-0.147,2.762,0.192,4.119c0.333,1.332,0.891,2.605,1.503,3.829c0.415,0.829,0.904,2.002,1.934,2.206
				c2.264,0.446,2.051-3.28,1.97-4.535c-0.058-0.906-0.194-1.799-0.393-2.677c0.461,0.462,0.95,0.897,1.471,1.292
				c1.396,1.062,3.82,2.806,5.687,1.986c0.865-0.38,1.259-1.298,1.006-2.201c-0.331-1.179-1.483-1.968-2.39-2.686
				c-1.443-1.142-2.951-2.184-4.508-3.151c0.612,0.085,1.224,0.168,1.835,0.26C127.335,353.832,128.572,354.081,129.812,354.109z"/>
			<path style="fill:#83BAA8;" d="M122.257,333.461c0.849,0.186,2.744,0.095,2.653-1.207c-0.042-0.599-0.652-1.011-1.13-1.263
				c-0.605-0.32-1.286-0.463-1.964-0.501c-0.426-0.024-0.854-0.012-1.281,0.022c0.649-0.436,1.593-1.176,1.3-1.91
				c-0.352-0.88-1.969-0.305-2.583-0.081c-0.404,0.148-0.783,0.343-1.148,0.562c0.09-0.637-0.039-1.305-0.431-1.859
				c-0.615-0.868-1.469,1.555-1.52,1.885c-0.306-0.306-0.666-0.558-1.082-0.743c-0.722-0.321-1.844-0.585-2.535-0.045
				c-0.657,0.514-0.237,1.242,0.355,1.568c0.465,0.256,0.974,0.454,1.498,0.61c-0.408,0.101-0.805,0.251-1.178,0.469
				c-0.62,0.362-1.782,1.374-1.484,2.215c0.306,0.863,1.744,0.377,2.334,0.198c0.498-0.151,0.969-0.364,1.415-0.62
				c-0.279,0.723-0.383,1.516-0.342,2.306c0.039,0.775,0.21,1.542,0.417,2.288c0.14,0.505,0.283,1.209,0.833,1.434
				c1.208,0.494,1.495-1.596,1.587-2.301c0.066-0.509,0.088-1.019,0.073-1.528c0.205,0.307,0.43,0.601,0.675,0.877
				c0.659,0.741,1.814,1.973,2.939,1.722c0.521-0.117,0.84-0.583,0.798-1.112c-0.055-0.69-0.608-1.253-1.033-1.75
				c-0.676-0.791-1.399-1.533-2.158-2.24c0.33,0.114,0.661,0.227,0.99,0.344C120.913,333.037,121.571,333.31,122.257,333.461z"/>
			<path style="fill:#83BAA8;" d="M133.994,376.796c1.364-0.303,4.063-1.719,3.049-3.555c-0.466-0.844-1.635-1.031-2.501-1.076
				c-1.098-0.056-2.187,0.196-3.202,0.6c-0.636,0.254-1.252,0.56-1.853,0.899c0.65-1.075,1.526-2.792,0.601-3.663
				c-1.108-1.044-3.075,0.889-3.819,1.632c-0.489,0.489-0.909,1.031-1.293,1.597c-0.3-0.989-0.94-1.875-1.887-2.418
				c-1.484-0.848-1.088,3.262-0.938,3.776c-0.653-0.238-1.349-0.362-2.08-0.35c-1.269,0.021-3.083,0.397-3.724,1.651
				c-0.61,1.194,0.496,1.971,1.578,2.044c0.852,0.058,1.727,0.002,2.597-0.125c-0.527,0.423-1.002,0.91-1.399,1.482
				c-0.658,0.948-1.667,3.209-0.662,4.232c1.03,1.05,2.797-0.632,3.535-1.291c0.623-0.557,1.165-1.187,1.642-1.863
				c0.084,1.242,0.469,2.469,1.063,3.592c0.583,1.103,1.351,2.105,2.157,3.052c0.546,0.642,1.232,1.571,2.184,1.526
				c2.095-0.097,1.098-3.339,0.755-4.429c-0.248-0.787-0.561-1.545-0.928-2.276c0.507,0.308,1.033,0.585,1.578,0.821
				c1.462,0.634,3.979,1.647,5.449,0.519c0.681-0.523,0.829-1.419,0.41-2.16c-0.548-0.968-1.735-1.415-2.691-1.851
				c-1.521-0.694-3.078-1.287-4.661-1.802c0.558-0.058,1.117-0.117,1.676-0.169C131.749,377.089,132.893,377.041,133.994,376.796z"
				/>
			<path style="fill:#83BAA8;" d="M87.676,373.993c-1.965,0.535-6.41,0.541-6.349-2.516c0.028-1.406,1.408-2.441,2.497-3.087
				c1.379-0.818,2.955-1.233,4.539-1.4c0.993-0.105,1.996-0.128,3.001-0.098c-1.569-0.945-3.866-2.567-3.264-4.319
				c0.721-2.1,4.572-0.943,6.036-0.489c0.962,0.299,1.873,0.712,2.753,1.183c-0.284-1.48-0.061-3.059,0.792-4.402
				c1.339-2.102,3.619,3.47,3.776,4.235c0.68-0.751,1.494-1.383,2.446-1.864c1.652-0.836,4.248-1.582,5.926-0.399
				c1.597,1.126,0.699,2.88-0.648,3.71c-1.059,0.653-2.227,1.176-3.436,1.602c0.967,0.188,1.912,0.494,2.812,0.962
				c1.493,0.776,4.33,3.008,3.729,5.011c-0.616,2.054-4.038,1.084-5.439,0.735c-1.182-0.295-2.31-0.74-3.384-1.288
				c0.736,1.659,1.072,3.504,1.069,5.357c-0.002,1.819-0.314,3.634-0.71,5.404c-0.268,1.199-0.522,2.863-1.782,3.453
				c-2.769,1.297-3.685-3.563-3.982-5.202c-0.214-1.183-0.325-2.375-0.349-3.567c-0.445,0.742-0.936,1.456-1.478,2.132
				c-1.456,1.812-4.016,4.828-6.678,4.37c-1.234-0.212-2.034-1.267-1.997-2.509c0.049-1.622,1.278-3.004,2.215-4.216
				c1.491-1.929,3.097-3.751,4.79-5.492c-0.76,0.304-1.52,0.608-2.277,0.921C90.772,372.847,89.261,373.562,87.676,373.993z"/>
		</g>
		<path style="fill:#9DC9DD;" d="M79.898,396.758c32.782,45.514,86.02,66.783,157.918,66.783c89.74,0,148.175,3,186.436-42.667
			c5.189-6.194,10.248-14.382,14.989-24.116H79.898z"/>
		<path style="fill:#74A7CB;" d="M434.128,406.422c1.738-3.021,3.446-6.241,5.113-9.664H79.898c2.419,3.358,4.963,6.569,7.604,9.664
			H434.128z"/>
	</g>
	<g>
		<path style="fill:#FFCE5E;" d="M101.787,315.303l1.123,2.034c0.07,0.126,0.173,0.23,0.299,0.3l2.034,1.123
			c0.526,0.291,0.526,1.047,0,1.338l-2.034,1.123c-0.126,0.07-0.23,0.173-0.299,0.299l-1.123,2.034
			c-0.291,0.526-1.047,0.526-1.338,0l-1.123-2.034c-0.07-0.126-0.174-0.23-0.3-0.299l-2.034-1.123c-0.526-0.291-0.526-1.047,0-1.338
			l2.034-1.123c0.126-0.07,0.23-0.174,0.3-0.3l1.123-2.034C100.74,314.777,101.497,314.777,101.787,315.303z"/>
		<path style="fill:#FFCE5E;" d="M289.277,64.511l1.123,2.034c0.07,0.126,0.174,0.23,0.3,0.299l2.034,1.123
			c0.526,0.291,0.526,1.047,0,1.338L290.7,70.43c-0.126,0.07-0.23,0.174-0.3,0.3l-1.123,2.034c-0.291,0.526-1.047,0.526-1.338,0
			l-1.123-2.034c-0.07-0.126-0.173-0.23-0.3-0.3l-2.034-1.123c-0.526-0.291-0.526-1.047,0-1.338l2.034-1.123
			c0.126-0.07,0.23-0.173,0.3-0.299l1.123-2.034C288.23,63.985,288.986,63.985,289.277,64.511z"/>
		<path style="fill:#FFCE5E;" d="M426.028,191.598l1.123,2.034c0.07,0.126,0.174,0.23,0.3,0.299l2.034,1.123
			c0.526,0.291,0.526,1.047,0,1.338l-2.034,1.123c-0.126,0.07-0.23,0.173-0.3,0.3l-1.123,2.034c-0.291,0.526-1.047,0.526-1.338,0
			l-1.123-2.034c-0.07-0.126-0.173-0.23-0.3-0.3l-2.034-1.123c-0.526-0.291-0.526-1.047,0-1.338l2.034-1.123
			c0.126-0.07,0.23-0.173,0.3-0.299l1.123-2.034C424.981,191.072,425.738,191.072,426.028,191.598z"/>
		<path style="fill:#FFCE5E;" d="M281.062,339.464l1.123,2.034c0.07,0.126,0.173,0.23,0.299,0.3l2.034,1.123
			c0.526,0.291,0.526,1.047,0,1.338l-2.034,1.123c-0.126,0.07-0.23,0.173-0.299,0.299l-1.123,2.034
			c-0.291,0.526-1.047,0.526-1.338,0l-1.123-2.034c-0.07-0.126-0.173-0.23-0.3-0.299l-2.034-1.123c-0.526-0.291-0.526-1.047,0-1.338
			l2.034-1.123c0.126-0.07,0.23-0.173,0.3-0.3l1.123-2.034C280.015,338.938,280.772,338.938,281.062,339.464z"/>
		<path style="fill:#FFCE5E;" d="M115.809,302.565l1.543,2.795c0.096,0.173,0.238,0.316,0.412,0.412l2.795,1.543
			c0.723,0.399,0.723,1.439,0,1.838l-2.795,1.543c-0.173,0.096-0.316,0.238-0.412,0.412l-1.543,2.795
			c-0.399,0.723-1.439,0.723-1.838,0l-1.544-2.795c-0.096-0.173-0.238-0.316-0.412-0.412l-2.795-1.543
			c-0.723-0.399-0.723-1.439,0-1.838l2.795-1.543c0.173-0.096,0.316-0.238,0.412-0.412l1.544-2.795
			C114.37,301.841,115.41,301.841,115.809,302.565z"/>
		<path style="fill:#FFCE5E;" d="M304.221,55.111l1.543,2.795c0.096,0.173,0.238,0.316,0.412,0.412l2.795,1.543
			c0.723,0.399,0.723,1.439,0,1.838l-2.795,1.544c-0.173,0.096-0.316,0.238-0.412,0.412l-1.543,2.795
			c-0.399,0.723-1.439,0.723-1.838,0l-1.543-2.795c-0.096-0.173-0.238-0.316-0.412-0.412l-2.795-1.544
			c-0.723-0.399-0.723-1.439,0-1.838l2.795-1.543c0.173-0.096,0.316-0.238,0.412-0.412l1.543-2.795
			C302.782,54.388,303.821,54.388,304.221,55.111z"/>
		<path style="fill:#FFCE5E;" d="M369.939,304.936l1.543,2.795c0.096,0.173,0.238,0.316,0.412,0.412l2.795,1.543
			c0.723,0.399,0.723,1.439,0,1.838l-2.795,1.543c-0.173,0.096-0.316,0.238-0.412,0.412l-1.543,2.795
			c-0.399,0.723-1.439,0.723-1.838,0l-1.544-2.795c-0.096-0.173-0.238-0.316-0.412-0.412l-2.795-1.543
			c-0.723-0.399-0.723-1.439,0-1.838l2.795-1.543c0.173-0.096,0.316-0.238,0.412-0.412l1.544-2.795
			C368.5,304.213,369.539,304.213,369.939,304.936z"/>
		<path style="fill:#FFCE5E;" d="M126.762,156.954l1.543,2.795c0.096,0.173,0.238,0.316,0.412,0.412l2.795,1.543
			c0.723,0.399,0.723,1.439,0,1.838l-2.795,1.544c-0.173,0.096-0.316,0.238-0.412,0.412l-1.543,2.795
			c-0.399,0.723-1.439,0.723-1.838,0l-1.543-2.795c-0.096-0.173-0.238-0.316-0.412-0.412l-2.795-1.544
			c-0.723-0.399-0.723-1.439,0-1.838l2.795-1.543c0.173-0.096,0.316-0.238,0.412-0.412l1.543-2.795
			C125.323,156.231,126.363,156.231,126.762,156.954z"/>
	</g>
	<g>
		<ellipse style="fill:#74A7CB;" cx="201.255" cy="440.661" rx="47.305" ry="8.657"/>
		<path style="fill:#D5F2F9;" d="M115.802,439.393c0,3.945-14.56,7.143-32.52,7.143c-17.961,0-32.521-3.198-32.521-7.143
			c0-3.945,14.56-7.142,32.521-7.142C101.242,432.251,115.802,435.448,115.802,439.393z"/>
		<g>
			<path style="fill:#222859;" d="M213.372,194.608c-22.954,2.086-25.054,21.74-22.106,34.44c2.947,12.7-18.948,42.189-2.948,62.854
				c16.001,20.664,43.37,14.637,49.055-10.117C243.058,257.031,241.794,192.025,213.372,194.608z"/>
			<path style="fill:#697BAE;" d="M208.082,247.257c-12.704,3.777-21.906,32.215-26.094,44.778
				c-4.188,12.564,3.866,26.738,16.268,27.866c12.403,1.128,29.799-6.443,34.953-20.134c5.154-13.691,6.765-34.148,6.121-43.329
				c-0.644-9.181-3.705-12.886-7.248-13.369C228.538,242.586,214.042,245.486,208.082,247.257z"/>
			<path style="fill:#222859;" d="M212.948,435.096c-1.558,0.979-1.787,6.647-0.073,8.116c1.714,1.469,14.573,1.669,18.152,0.881
				c3.579-0.788,3.575-4.457,1.238-5.828c-2.337-1.371-13.171-3.942-13.171-3.942L212.948,435.096z"/>
			<path style="fill:#EBBA9D;" d="M211.997,422.961c0,0,0.11,9.623,0.659,11.826c0.549,2.203,8.781,3.014,9.549,1.507
				c0.768-1.507,2.854-14.029,2.854-14.029L211.997,422.961z"/>
			<path style="fill:#222859;" d="M164.738,427.111c-1.8,0.381-3.973,5.621-2.872,7.591c1.101,1.97,13.099,6.6,16.73,7.097
				c3.631,0.497,4.895-2.948,3.175-5.042c-1.72-2.094-10.998-8.249-10.998-8.249L164.738,427.111z"/>
			<path style="fill:#EBBA9D;" d="M168.037,415.394c0,0-3.221,9.069-3.467,11.326c-0.246,2.257,7.199,5.862,8.441,4.713
				c1.242-1.149,7.524-12.18,7.524-12.18L168.037,415.394z"/>
			<path style="fill:#EB977D;" d="M212.096,427.316c4.092-0.114,8.177-0.424,12.243-0.902c0.417-2.332,0.719-4.148,0.719-4.148
				l-13.061,0.695C211.997,422.961,212.02,424.945,212.096,427.316z"/>
			<path style="fill:#EB977D;" d="M166.248,420.665c1.572,0.336,3.184,0.505,4.787,0.668c2.613,0.266,5.226,0.531,7.839,0.797
				c0.968-1.662,1.66-2.877,1.66-2.877l-12.497-3.859C168.037,415.394,167.134,417.938,166.248,420.665z"/>
			<path style="fill:#ED6C6B;" d="M184.652,347.366c0,0-16.773,55.421-20.638,69.566l16.928,4.87c0,0,27.363-51.942,33.855-71.421
				c0,0-4.174,56-4.406,74.203l16.232,1.623c0,0,14.377-51.015,14.145-75.131c-0.232-24.116-25.971-19.478-25.971-19.478
				L184.652,347.366z"/>
			<path style="fill:#222859;" d="M231.381,333.731c-4.754-0.935-9.527-1.783-14.319-2.393c-1.402,0.106-2.265,0.26-2.265,0.26
				l-30.145,15.768c0,0-0.897,2.963-2.322,7.688c0.995,0.481,2.058,0.821,3.125,1.12c8.57,2.407,17.632,3.019,26.453,1.829
				c1.178-2.866,2.164-5.448,2.889-7.622c0,0-0.367,4.928-0.89,12.336c9.102-0.731,18.1-2.694,26.68-5.822
				c0.133-2.067,0.199-4.019,0.182-5.818C240.675,341.337,236.42,336.29,231.381,333.731z"/>
			<path style="fill:#EBBA9D;" d="M155.28,310.651c-2.628,1.701-5.488,4.406-6.802,6.957c-1.314,2.551,0,6.415,1.701,7.961
				s4.715,1.237,5.797,0.541c1.082-0.696,1.314-2.628,0.155-2.86c-1.159-0.232-1.932-2.087-1.932-2.087s2.319-2.087,2.86-1.546
				c0.541,0.541,5.102-2.164,6.184-3.633c1.082-1.469-3.865-5.797-3.865-5.797L155.28,310.651z"/>
			<path style="fill:#EB977D;" d="M159.376,310.187l-4.097,0.464c-0.206,0.133-0.414,0.282-0.621,0.427
				c1.718,2.532,3.776,4.828,6.055,6.873c0.027,0.024,0.055,0.048,0.083,0.072c1.049-0.689,2.018-1.459,2.445-2.038
				C164.323,314.516,159.376,310.187,159.376,310.187z"/>
			<path style="fill:#EBBA9D;" d="M280.332,211.222c0,0,1.668-4.811,3.335-7.504c1.668-2.694,5.772-3.464,5.772-3.464
				s4.81-5.901,5.644-6.606c0.834-0.706,2.501-0.192,2.373,0.834c-0.128,1.026-3.335,5.644-3.335,5.644s1.219,0.898,1.219,2.181
				c0,0,1.155,0.77,0.834,2.309c0,0,1.089,0.829,0.768,2.112c-0.321,1.283-1.892,2.752-2.918,4.676
				c-1.026,1.924-3.11,3.666-3.815,4.564c-0.706,0.898-3.464,3.143-3.464,3.143S280.204,213.146,280.332,211.222z"/>
			<path style="fill:#EB977D;" d="M286.746,219.111c0,0,1.733-1.411,2.803-2.444c-2.647-1.796-5.155-3.799-7.479-5.998
				c-0.371-0.352-0.75-0.709-1.16-1.015c-0.358,0.932-0.579,1.567-0.579,1.567C280.204,213.146,286.746,219.111,286.746,219.111z"/>
			<circle style="fill:#222859;" cx="202.735" cy="200.292" r="8.825"/>
			<path style="fill:#FFCE5E;" d="M208.072,246.38c-9.971,2.667-13.913,4.29-18.551,8.464c-4.638,4.174-35.71,55.189-35.71,55.189
				s6.029,6.879,10.203,8.039l35.942-40.271c0,0-16.232,54.957-22.029,69.798c0,0,41.276,17.855,65.856,6.957
				c0,0,8.812-62.145,4.174-89.508c0,0,31.884-27.131,40.696-45.682l-8.803-9.791c0,0-20.716,27.175-46.849,32.168l-11.478,2.667
				L208.072,246.38z"/>
			<path style="fill:#EBBA9D;" d="M212.015,234.901c0,0,0.116,4.406,0,6.841c-0.116,2.435-3.942,4.638-3.942,4.638
				s11.826,6.493,15.652,7.42c0,0,7.42-7.188,9.275-12.058c0,0-2.087,0.232-3.594-0.812c-1.507-1.044-2.783-8.348-2.783-8.348
				L212.015,234.901z"/>
			<path style="fill:#EB977D;" d="M227.781,237.553c-0.695-2.332-1.158-4.97-1.158-4.97l-14.609,2.319c0,0,0.116,4.406,0,6.841
				c-0.027,0.565-0.258,1.116-0.591,1.631c0.867,0.406,1.8,0.668,2.756,0.733c1.192,0.081,2.387-0.119,3.544-0.42
				C221.58,242.684,225.114,240.511,227.781,237.553z"/>
			<path style="fill:#EBBA9D;" d="M200.422,221.495c0,0-5.316,0.777-3.552,5.381c1.764,4.604,5.166,2.045,5.166,2.045
				s6.52,13.617,17.758,11.516c13.238-2.475,14.745-17.435,10.763-26.799c0,0-7.103-3.121-11.193-7.426c0,0-5.058,6.242-8.395,6.565
				C207.633,213.1,207.31,221.387,200.422,221.495z"/>
			<g>
				<path style="fill:#EB977D;" d="M198.991,225.576c0.007,0.003,0.012,0.006,0.019,0.008c-0.005-0.002-0.01-0.005-0.016-0.007
					C198.993,225.577,198.992,225.577,198.991,225.576z"/>
				<path style="fill:#EB977D;" d="M201.207,225.736c-0.289-0.49-0.723-0.908-1.222-1.182c-0.275-0.151-0.583-0.282-0.894-0.331
					c-0.179-0.028-0.36-0.052-0.541-0.053c-0.102,0-0.214,0.002-0.312,0.026c-0.101,0.025-0.204,0.079-0.299,0.126
					c-0.194,0.096-0.288,0.344-0.261,0.545c0.03,0.226,0.183,0.378,0.392,0.455c0.086,0.031,0.158,0.061,0.25,0.073
					c0.02,0.003,0.041,0.005,0.062,0.008c0.025,0.004,0.05,0.008,0.074,0.012c0.121,0.023,0.241,0.056,0.357,0.097
					c0.059,0.021,0.119,0.042,0.178,0.064c-0.009-0.004-0.019-0.008-0.026-0.012c0.009,0.005,0.019,0.009,0.029,0.014
					c0.004,0.001,0.008,0.003,0.012,0.004c0.072,0.028,0.041,0.019,0.004,0.003c0.019,0.009,0.038,0.018,0.056,0.027
					c0.117,0.058,0.229,0.125,0.336,0.2c0.01,0.007,0.023,0.018,0.037,0.027c0.042,0.035,0.082,0.072,0.122,0.11
					c-0.086,0.09-0.16,0.191-0.214,0.296c-0.198,0.385-0.19,0.865,0.049,1.233c0.321,0.492,0.92,0.633,1.441,0.384
					c0.407-0.194,0.638-0.613,0.673-1.05C201.541,226.435,201.395,226.055,201.207,225.736z"/>
			</g>
			<path style="fill:#EB977D;" d="M230.558,213.638c0,0-7.103-3.121-11.193-7.426c0,0-5.059,6.242-8.395,6.565
				c-3.336,0.323-3.659,8.61-10.547,8.718c2.317,0.537,5.331,0.885,6.607-1.55c1.275-2.435,2.667-6.261,5.449-6.145
				c2.783,0.116,5.681-3.014,6.841-5.681C219.319,208.119,225.216,213.592,230.558,213.638z"/>
			<path style="fill:#EB977D;" d="M296.449,204.561c0.029-0.241,0.038-0.485,0.008-0.73c-0.045-0.36-0.12-0.753-0.324-1.061
				c-0.13-0.196-0.345-0.383-0.578-0.404c0.044-0.257,0.063-0.518,0.02-0.783c-0.117-0.72-0.647-1.415-1.415-1.439
				c-0.002,0-0.003,0.002-0.005,0.002c0.498-0.707,0.997-1.413,1.493-2.122c0.371-0.531,0.763-1.053,1.115-1.598
				c0.314-0.485,0.513-0.981,0.655-1.539c0.007-0.027-0.03-0.053-0.05-0.029c-1.553,1.83-2.908,3.826-4.3,5.783
				c-0.577-0.301-1.324-0.435-1.862-0.503c-1.309-0.166-2.662,0.018-3.877,0.528c-0.609,0.256-1.2,0.565-1.737,0.952
				c-0.371,0.268-1.097,0.704-1.085,1.222c0,0.014,0.012,0.027,0.026,0.026c0.405-0.018,0.772-0.479,1.079-0.701
				c0.436-0.315,0.913-0.594,1.411-0.796c0.984-0.4,2.099-0.589,3.159-0.562c0.529,0.014,1.058,0.083,1.572,0.208
				c0.386,0.093,1.279,0.239,1.341,0.723c0.08,0.625-0.68,0.906-1.154,1.012c-0.637,0.143-1.291,0.214-1.932,0.338
				c-0.237,0.046-0.411,0.354-0.33,0.58c0.258,0.718,0.257,1.455,0.016,2.179c-0.25,0.747-0.737,1.257-1.327,1.75
				c-0.396,0.331,0.11,0.929,0.536,0.695c1.123-0.617,1.747-1.885,1.854-3.166c0.105,0.156,0.237,0.294,0.389,0.406
				c0.203,0.149,0.425,0.221,0.652,0.261c-0.072,0.504,0.194,1.019,0.637,1.273c0.213,0.122,0.443,0.171,0.677,0.191
				c-0.022,0.107-0.034,0.214-0.039,0.288c-0.02,0.303,0.094,0.631,0.262,0.882c0.4,0.595,1.054,0.674,1.717,0.576
				c0.633-0.094,1.202-0.481,1.616-0.96c0.386-0.448,0.689-1.119,0.66-1.721c-0.03-0.627-0.3-1.315-0.795-1.716
				C296.507,204.584,296.478,204.574,296.449,204.561z M292.095,205.159c-0.329-0.016-0.647-0.192-0.807-0.484
				c-0.073-0.133-0.113-0.279-0.122-0.43c-0.008-0.125,0.007-0.254-0.021-0.372c1.172-0.176,2.532-0.495,2.769-1.718
				c0.097-0.5-0.07-0.869-0.359-1.154c0.16-0.227,0.319-0.454,0.479-0.681c0.008,0.031,0.024,0.06,0.059,0.077
				c0.615,0.304,1.011,0.912,0.961,1.604c-0.058,0.794-0.582,1.458-1.137,1.985c-0.281,0.267-0.577,0.524-0.879,0.766
				C292.768,204.966,292.454,205.177,292.095,205.159z M292.297,205.809c0.32-0.042,0.634-0.16,0.907-0.36
				c0.642-0.471,1.27-1.057,1.745-1.696c0.187-0.251,0.334-0.531,0.448-0.821c0.074,0.022,0.126,0.046,0.179,0.129
				c0.077,0.12,0.105,0.264,0.14,0.4c0.077,0.298,0.12,0.596,0.103,0.904c-0.035,0.655-0.401,1.123-0.889,1.527
				c-0.463,0.383-1.033,0.798-1.658,0.808C292.772,206.708,292.219,206.349,292.297,205.809z M296.653,206.486
				c-0.092,0.585-0.495,1.102-0.926,1.487c-0.246,0.22-0.514,0.362-0.844,0.406c-0.274,0.036-0.639,0.078-0.878-0.085
				c-0.255-0.173-0.359-0.465-0.429-0.751c-0.024-0.096-0.031-0.192-0.037-0.287c0.291-0.036,0.58-0.12,0.843-0.246
				c0.592-0.285,1.196-0.719,1.598-1.241c0.131-0.17,0.226-0.357,0.304-0.55C296.634,205.545,296.728,206.01,296.653,206.486z"/>
			<path style="fill:#EB977D;" d="M156.117,323.117c-0.632,0.054-1.259,0.149-1.886-0.003c-0.584-0.141-1.104-0.426-1.51-0.873
				c-0.391-0.431-0.649-0.998-0.729-1.573c-0.059-0.422,0.006-0.816,0.127-1.2c0.167-0.078,0.317-0.233,0.448-0.34
				c0.16-0.131,0.378-0.273,0.568-0.398c0.201-0.132,0.417-0.242,0.633-0.349c0.232-0.115,0.454-0.207,0.644-0.388
				c0.108-0.102,0.046-0.269-0.083-0.313c-0.278-0.095-0.562-0.036-0.831,0.061c-0.263,0.095-0.506,0.228-0.736,0.387
				c-0.038,0.026-0.07,0.058-0.107,0.086c0.057-0.151,0.095-0.304,0.068-0.447c-0.057-0.302-0.34-0.4-0.601-0.245
				c-0.294,0.175-0.519,0.638-0.659,0.936c-0.165,0.35-0.31,0.713-0.391,1.093c-0.274,1.284,0.12,2.661,1.07,3.579
				c0.53,0.513,1.222,0.872,1.948,1.003c0.736,0.132,1.578,0.11,2.213-0.33C156.573,323.614,156.512,323.083,156.117,323.117z"/>
			<circle style="fill:#ED6C6B;" cx="154.719" cy="320.834" r="3.033"/>
			<g>
				<path style="fill:#222859;" d="M133.481,356.861c-0.347,0-0.697-0.094-1.012-0.29c-0.901-0.56-1.175-1.744-0.616-2.644
					l21.236-34.107c0.561-0.902,1.747-1.174,2.644-0.616c0.901,0.561,1.175,1.744,0.616,2.644l-21.236,34.107
					C134.748,356.54,134.122,356.861,133.481,356.861z"/>
			</g>
			<path style="fill:#222859;" d="M183.115,416.051c-2.132-0.564-4.253-1.172-6.361-1.824c-2.107-0.651-4.201-1.344-6.282-2.075
				c-1.004-0.353-2.005-0.715-3.002-1.087c-0.535-0.2-1.074-0.426-1.617-0.636c-0.067,0.234-0.134,0.466-0.2,0.693
				c0.474,0.189,0.953,0.364,1.415,0.545c0.395,0.155,0.794,0.301,1.19,0.453c-0.165,0.255-0.321,0.486-0.435,0.789
				c-0.136,0.364-0.262,0.73-0.382,1.1c-0.239,0.738-0.47,1.478-0.677,2.225c-0.127,0.46-0.239,0.923-0.357,1.386l0.843,0.243
				c0.122-0.464,0.243-0.929,0.373-1.391c0.209-0.746,0.412-1.494,0.63-2.238c0.109-0.372,0.216-0.744,0.318-1.118
				c0.08-0.292,0.09-0.556,0.107-0.836c0.459,0.174,0.916,0.354,1.377,0.524c0.735,0.272,1.475,0.53,2.215,0.79
				c-0.271,0.507-0.382,1.153-0.53,1.676c-0.205,0.721-0.41,1.443-0.615,2.164c-0.134,0.47-0.277,0.945-0.416,1.423l0.859,0.247
				c0.133-0.483,0.261-0.966,0.394-1.439c0.204-0.722,0.407-1.443,0.611-2.165c0.144-0.51,0.378-1.09,0.425-1.646
				c1.137,0.393,2.279,0.775,3.425,1.142c0.133,0.042,0.267,0.081,0.4,0.123c-0.217,0.615-0.379,1.253-0.565,1.877
				c-0.221,0.739-0.435,1.48-0.673,2.214c-0.103,0.318-0.219,0.636-0.337,0.954l0.793,0.228c0.102-0.329,0.202-0.656,0.301-0.974
				c0.414-1.324,0.874-2.733,1.031-4.129c1.05,0.328,2.103,0.645,3.159,0.954c-0.145,0.257-0.226,0.556-0.319,0.834
				c-0.12,0.358-0.243,0.714-0.369,1.07c-0.251,0.712-0.514,1.419-0.786,2.123c-0.115,0.297-0.237,0.592-0.355,0.887l0.775,0.223
				c0.107-0.275,0.223-0.546,0.326-0.821c0.264-0.706,0.518-1.416,0.761-2.13c0.122-0.357,0.24-0.715,0.356-1.073
				c0.097-0.3,0.228-0.611,0.258-0.928c0.53,0.152,1.058,0.308,1.589,0.454c0.217,0.06,0.435,0.113,0.652,0.171
				c0.137-0.263,0.278-0.535,0.424-0.817C183.601,416.173,183.357,416.115,183.115,416.051z"/>
			<path style="fill:#222859;" d="M227.898,420.268c-2.2-0.163-4.396-0.372-6.588-0.625c-2.191-0.253-4.377-0.55-6.556-0.886
				c-1.052-0.162-2.102-0.335-3.151-0.518c-0.341-0.059-0.685-0.128-1.031-0.197c-0.009,0.242-0.018,0.484-0.027,0.721
				c0.26,0.047,0.519,0.093,0.773,0.141c0.417,0.08,0.836,0.151,1.253,0.227c-0.115,0.281-0.226,0.537-0.283,0.856
				c-0.067,0.383-0.124,0.766-0.174,1.151c-0.099,0.769-0.191,1.539-0.257,2.311c-0.036,0.423-0.07,0.847-0.099,1.271l0.888,0.089
				c0.031-0.428,0.062-0.857,0.099-1.284c0.068-0.772,0.131-1.545,0.209-2.316c0.039-0.385,0.076-0.771,0.107-1.157
				c0.025-0.302-0.014-0.563-0.048-0.841c0.483,0.087,0.965,0.18,1.45,0.263c0.773,0.132,1.548,0.25,2.322,0.37
				c-0.173,0.548-0.163,1.204-0.214,1.745c-0.069,0.747-0.138,1.493-0.207,2.24c-0.041,0.442-0.089,0.889-0.135,1.339l0.889,0.089
				c0.037-0.455,0.071-0.908,0.111-1.354c0.068-0.747,0.136-1.493,0.203-2.24c0.048-0.528,0.171-1.141,0.116-1.697
				c1.19,0.178,2.382,0.344,3.576,0.494c0.138,0.017,0.277,0.031,0.415,0.048c-0.1,0.645-0.143,1.301-0.211,1.948
				c-0.081,0.767-0.156,1.534-0.255,2.299c-0.038,0.293-0.088,0.588-0.138,0.884l0.816,0.082c0.035-0.303,0.069-0.606,0.104-0.899
				c0.164-1.378,0.357-2.847,0.255-4.249c1.092,0.13,2.186,0.248,3.28,0.358c-0.096,0.279-0.12,0.588-0.161,0.878
				c-0.053,0.374-0.108,0.747-0.166,1.12c-0.117,0.746-0.244,1.49-0.383,2.231c-0.052,0.279-0.111,0.558-0.166,0.836l0.811,0.081
				c0.048-0.257,0.096-0.514,0.141-0.77c0.13-0.743,0.249-1.487,0.357-2.233c0.054-0.373,0.105-0.747,0.153-1.121
				c0.04-0.313,0.112-0.642,0.084-0.959c0.549,0.053,1.097,0.109,1.646,0.155c0.095,0.008,0.19,0.013,0.285,0.021
				c0.075-0.283,0.153-0.577,0.234-0.88C228.118,420.281,228.008,420.276,227.898,420.268z"/>
			<path style="fill:#ED6C6B;" d="M235.259,241.249c-0.153,0.417-0.313,0.833-0.494,1.246c-0.798,1.82-1.776,3.557-2.858,5.222
				c-2.165,3.329-4.699,6.387-7.271,9.404c-3.523-1.355-6.947-2.949-10.236-4.803c-1.655-0.933-3.291-1.893-4.885-2.926
				c-0.781-0.507-1.549-1.033-2.317-1.559c-0.405-0.278-0.81-0.595-1.231-0.878c-0.285,0.079-0.561,0.157-0.835,0.235
				c0.457,0.438,1.007,0.803,1.505,1.178c0.802,0.603,1.632,1.171,2.464,1.731c1.605,1.078,3.246,2.113,4.935,3.055
				c3.415,1.903,6.964,3.563,10.614,4.961c0.141,0.054,0.351-0.005,0.448-0.118c2.713-3.165,5.448-6.354,7.688-9.88
				c1.393-2.193,2.707-4.622,3.58-7.158C235.997,241.055,235.63,241.159,235.259,241.249z"/>
			<path style="fill:#ED6C6B;" d="M283.534,218.111c-1.301-1.478-2.558-2.993-3.81-4.512c-0.529-0.642-1.049-1.292-1.575-1.937
				c-0.13,0.153-0.255,0.302-0.398,0.47c0.465,0.637,0.938,1.269,1.417,1.895c1.195,1.562,2.437,3.087,3.688,4.604
				c1.24,1.505,2.508,2.987,3.8,4.447c0.19-0.32,0.363-0.634,0.542-0.95C285.958,220.806,284.732,219.471,283.534,218.111z"/>
			<path style="fill:#ED6C6B;" d="M167.356,314.327c-1.737-0.96-3.443-1.975-5.091-3.101c-1.756-1.2-3.445-2.496-5.058-3.883
				c-0.384-0.33-0.755-0.675-1.133-1.012c-0.124,0.203-0.245,0.399-0.36,0.587c0.376,0.359,0.739,0.731,1.127,1.077
				c1.563,1.392,3.203,2.701,4.904,3.92c1.581,1.133,3.23,2.202,4.938,3.165L167.356,314.327z"/>
			<path style="fill:#ED6C6B;" d="M244.364,350.216c0.043-0.331,0.088-0.682,0.135-1.048c-1.609,0.636-3.259,1.183-4.962,1.625
				c-4.901,1.274-9.972,1.777-15.03,1.746c-5.419-0.033-10.816-0.702-16.134-1.718c-5.079-0.97-10.113-2.185-15.061-3.688
				c-2.784-0.846-5.54-1.781-8.264-2.804c-1.739-0.653-3.458-1.356-5.177-2.057c-0.064,0.183-0.126,0.361-0.189,0.539
				c3.752,1.768,7.699,3.207,11.6,4.53c4.98,1.688,10.065,3.111,15.218,4.162c10.401,2.121,21.226,3.034,31.654,0.585
				C240.234,351.601,242.322,350.978,244.364,350.216z"/>
			<path style="fill:#ED6C6B;" d="M202.007,267.29c-0.049-0.087-0.161-0.09-0.23-0.03c-0.443,0.387-0.457,1.182-0.565,1.73
				c-0.143,0.726-0.29,1.45-0.442,2.174c-0.311,1.487-0.618,2.975-0.948,4.457c-0.215,0.966-0.442,1.93-0.666,2.894
				c-0.006,0.003-0.012,0-0.017,0.004c-0.211,0.134-0.344,0.351-0.493,0.547c-0.15,0.196-0.299,0.392-0.449,0.588
				c-0.145,0.19-0.29,0.38-0.435,0.571c-0.149,0.195-0.277,0.405-0.412,0.61c-0.109,0.167,0.141,0.361,0.277,0.214
				c0.16-0.175,0.329-0.346,0.476-0.532c0.153-0.193,0.307-0.387,0.46-0.58c0.125-0.158,0.25-0.316,0.376-0.474
				c-0.038,0.163-0.074,0.326-0.112,0.488c-0.338,1.422-0.712,2.839-0.833,4.298c-0.012,0.149,0.222,0.213,0.286,0.078
				c0.625-1.323,0.984-2.741,1.342-4.156c0.372-1.474,0.719-2.952,1.042-4.437c0.315-1.447,0.618-2.897,0.883-4.354
				c0.14-0.767,0.275-1.536,0.405-2.305C202.044,268.529,202.289,267.797,202.007,267.29z"/>
			<path style="fill:#ED6C6B;" d="M249.598,263.013c-0.2,0.07-0.378,0.2-0.546,0.327c-0.178,0.134-0.336,0.296-0.479,0.466
				c-0.142,0.168-0.275,0.344-0.396,0.527c-0.035,0.053-0.071,0.113-0.108,0.171c-0.006-0.037-0.011-0.074-0.017-0.112
				c-0.089-0.547-0.176-1.095-0.275-1.64c-0.074-0.406-0.088-0.843-0.421-1.118c-0.008-0.006-0.018-0.006-0.024,0.003
				c-0.231,0.358-0.114,0.781-0.066,1.184c0.065,0.55,0.141,1.099,0.21,1.649c0.137,1.1,0.259,2.203,0.397,3.303
				c0.27,2.154,0.483,4.309,0.87,6.446c0.045,0.247,0.44,0.187,0.435-0.059c-0.052-2.224-0.346-4.42-0.641-6.623
				c-0.103-0.77-0.23-1.536-0.354-2.303c0.037-0.011,0.075-0.022,0.102-0.049c0.15-0.154,0.243-0.364,0.358-0.544
				c0.107-0.168,0.216-0.319,0.33-0.457c0.128-0.156,0.266-0.303,0.397-0.456c0.136-0.159,0.29-0.306,0.411-0.476
				C249.86,263.137,249.727,262.969,249.598,263.013z"/>
			<path style="fill:#ED6C6B;" d="M239.983,311.005c-0.574,0.258-1.026,0.707-1.529,1.083c-0.506,0.378-1.017,0.75-1.546,1.096
				c-1.057,0.693-2.179,1.296-3.334,1.807c-2.297,1.016-4.781,1.637-7.282,1.852c-5.151,0.441-10.281-0.856-14.784-3.345
				c-2.619-1.447-4.852-3.328-7.18-5.185c-0.087-0.069-0.251,0.023-0.171,0.132c1.563,2.117,3.713,3.782,5.915,5.195
				c2.257,1.45,4.755,2.578,7.336,3.309c5.17,1.465,10.761,1.283,15.783-0.663c1.373-0.532,2.694-1.183,3.934-1.979
				c0.622-0.399,1.231-0.826,1.799-1.3c0.549-0.46,1.154-0.934,1.478-1.582C240.548,311.137,240.263,310.88,239.983,311.005z"/>
			<g>
				<path style="fill:#222859;" d="M211.759,218.548c0.077,0.011,0.094-0.011,0.021-0.003c-0.005,0.001-0.008,0-0.013,0.001
					C211.765,218.547,211.762,218.548,211.759,218.548z"/>
				<path style="fill:#222859;" d="M212.681,217.94c-0.157-0.579-0.785-0.646-1.29-0.607c-0.679,0.052-1.349,0.273-1.898,0.683
					c-0.34,0.253-0.62,0.534-0.861,0.884c-0.257,0.372-0.372,0.79-0.469,1.225c-0.075,0.335,0.074,0.67,0.395,0.805
					c0.286,0.121,0.711,0.031,0.852-0.279c0.144-0.316,0.288-0.644,0.479-0.934c0.015-0.022,0.03-0.044,0.045-0.066
					c-0.003,0.002-0.007,0.008-0.008,0.007c0.001,0,0.01-0.011,0.012-0.013c0.001-0.002,0.003-0.004,0.004-0.006
					c0.054-0.076,0.039-0.048,0.017-0.017c0.033-0.037,0.08-0.094,0.091-0.106c0.049-0.052,0.1-0.102,0.153-0.15
					c0.027-0.025,0.056-0.049,0.084-0.073c0.107-0.074,0.213-0.146,0.327-0.208c0.023-0.012,0.168-0.069,0.202-0.096
					c0.033-0.012,0.066-0.024,0.1-0.035c0.124-0.041,0.251-0.072,0.379-0.096c-0.011-0.002-0.01,0.003-0.023-0.001
					c0.006,0.002,0.019,0,0.031-0.001c0.002,0,0.003-0.001,0.005-0.001c0.006-0.001,0.002,0.001,0.008,0.001
					c0.021-0.003,0.042-0.007,0.051-0.007c0.079-0.007,0.158-0.009,0.238-0.009c0.244,0.002,0.486,0.059,0.711-0.086
					C212.592,218.574,212.773,218.28,212.681,217.94z"/>
				<path style="fill:#222859;" d="M210.397,219.342c0.007-0.006,0.016-0.015,0.026-0.03c-0.008,0.01-0.017,0.019-0.022,0.023
					C210.4,219.338,210.399,219.34,210.397,219.342z"/>
			</g>
			<path style="fill:#222859;" d="M225.183,213.638c-0.411-0.407-1.104-0.582-1.666-0.645c-0.585-0.066-1.183-0.023-1.739,0.178
				c-0.504,0.182-0.952,0.495-1.323,0.879c-0.179,0.186-0.328,0.401-0.458,0.623c-0.061,0.105-0.117,0.213-0.161,0.327
				c-0.093,0.24-0.075,0.418-0.016,0.661c0.093,0.38,0.639,0.509,0.926,0.289c0.22-0.169,0.315-0.365,0.442-0.599
				c0.011-0.02,0.01-0.021,0.006-0.017c0.005-0.006,0.009-0.012,0.023-0.031c0.026-0.036,0.052-0.072,0.079-0.106
				c0.062-0.079,0.13-0.152,0.199-0.224c0.011-0.011,0.01-0.011,0.013-0.015c0.001-0.001,0,0,0.002-0.002
				c0.042-0.037,0.085-0.072,0.129-0.106c0.071-0.054,0.145-0.105,0.22-0.153c0.026-0.016,0.052-0.031,0.079-0.047
				c0.005-0.001,0.068-0.035,0.084-0.042c0.091-0.042,0.185-0.078,0.28-0.11c0.042-0.014,0.085-0.027,0.128-0.04
				c0.014-0.004,0.038-0.01,0.053-0.014c0.105-0.022,0.213-0.036,0.32-0.044c0.258-0.021,0.3-0.019,0.527,0.012
				c0.113,0.016,0.225,0.038,0.337,0.065c0.049,0.012,0.098,0.025,0.148,0.039c0.021,0.006,0.029,0.009,0.033,0.009
				c0.015,0.005,0.03,0.01,0.044,0.016c0.247,0.094,0.481,0.201,0.741,0.261c0.285,0.066,0.6-0.11,0.723-0.368
				C225.488,214.152,225.394,213.848,225.183,213.638z"/>
			<path style="fill:#222859;" d="M214.121,222.243c-0.235-0.802-0.703-1.588-1.475-1.796c-0.493-0.133-0.999,0.004-1.376,0.34
				c-0.573,0.511-0.641,1.309-0.534,2.02c0.093,0.619,0.418,1.271,0.902,1.674c1.153,0.959,2.758,0.368,2.666-1.2
				C214.285,222.965,214.227,222.602,214.121,222.243z"/>
			<path style="fill:#222859;" d="M225.716,218.378c-0.235-0.802-0.703-1.588-1.475-1.796c-0.493-0.133-0.999,0.004-1.376,0.34
				c-0.573,0.511-0.641,1.309-0.534,2.02c0.093,0.619,0.418,1.271,0.902,1.674c1.153,0.959,2.758,0.368,2.666-1.2
				C225.88,219.1,225.821,218.738,225.716,218.378z"/>
			<path style="fill:#EB977D;" d="M221.38,223.662c-0.066-0.259-0.346-0.4-0.596-0.339c-0.088,0.021-0.167,0.069-0.244,0.116
				c-0.056,0.035-0.112,0.072-0.161,0.117c-0.024,0.031-0.029,0.038-0.044,0.057c0,0-0.007,0.009-0.023,0.027
				c-0.083,0.093-0.171,0.174-0.262,0.258c-0.026,0.018-0.052,0.035-0.077,0.053c-0.049,0.034-0.097,0.071-0.148,0.105
				c-0.09,0.06-0.218,0.155-0.328,0.181c-0.006,0.002-0.002-0.001-0.012,0.003c-0.028,0.01-0.057,0.02-0.085,0.03
				c-0.063,0.02-0.126,0.038-0.19,0.053c-0.029,0.007-0.058,0.013-0.087,0.018c-0.016,0.003-0.083,0.009-0.069,0.009
				c-0.043,0.004-0.087,0.008-0.13,0.01c-0.128,0.004-0.26,0.003-0.388-0.003c-0.057-0.002-0.113-0.012-0.17-0.01
				c-0.076,0.003-0.146,0.033-0.218,0.051c-0.096,0.025-0.184,0.149-0.141,0.249c0.075,0.177,0.157,0.289,0.329,0.387
				c0.143,0.082,0.294,0.143,0.456,0.173c0.354,0.067,0.7,0.062,1.054-0.005c0.317-0.06,0.631-0.181,0.889-0.375
				C221.098,224.553,221.509,224.167,221.38,223.662z"/>
			<path style="fill:#222859;" d="M216.146,229.31c0.333-0.659,8.449-3.625,9.217-3.302c0.768,0.323,0.92,4.665-2.643,6.183
				S215.607,230.376,216.146,229.31z"/>
			<path style="fill:#ED6C6B;" d="M223.954,229.59c-1.167-0.313-2.433-0.058-3.513,0.484c-0.883,0.443-1.658,1.066-2.386,1.738
				c1.253,0.718,2.957,1.106,4.666,0.378c1.122-0.478,1.876-1.236,2.358-2.061C224.738,229.886,224.356,229.698,223.954,229.59z"/>
			<path style="fill:#FFFFFF;" d="M225.364,226.008c-0.768-0.323-8.884,2.643-9.217,3.302c-0.098,0.193-0.06,0.46,0.086,0.758
				c0.097,0.024,0.196,0.039,0.294,0.044c0.422,0.022,0.836-0.099,1.241-0.219c1.197-0.354,2.394-0.707,3.591-1.061
				c1.237-0.365,2.494-0.74,3.569-1.451c0.291-0.192,0.566-0.416,0.818-0.663C225.668,226.339,225.531,226.078,225.364,226.008z"/>
			<path style="fill:#FFFFFF;" d="M213.058,219.808c-1.071,0-1.073,1.665,0,1.665C214.129,221.473,214.131,219.808,213.058,219.808z
				"/>
			<path style="fill:#FFFFFF;" d="M224.594,215.982c-1.071,0-1.073,1.665,0,1.665C225.666,217.647,225.667,215.982,224.594,215.982z
				"/>
			<path style="fill:#ED6C6B;" d="M230.824,219.969c0.26,0.734-0.542,1.688-1.792,2.132c-1.25,0.444-2.474,0.208-2.734-0.525
				c-0.26-0.734,0.542-1.688,1.791-2.131C229.339,219,230.563,219.235,230.824,219.969z"/>
			<path style="fill:#ED6C6B;" d="M213.957,226.44c0.294,0.828-0.612,1.906-2.023,2.407c-1.411,0.501-2.794,0.236-3.088-0.593
				c-0.294-0.828,0.612-1.906,2.023-2.407C212.28,225.346,213.663,225.612,213.957,226.44z"/>
			<path style="fill:#697BAE;" d="M83.024,434.351l-18.557-10.714c-3.157-1.823-4.239-5.859-2.416-9.016l42.315-73.291
				c1.823-3.157,5.859-4.239,9.016-2.416l18.557,10.714c3.157,1.823,4.239,5.859,2.416,9.016l-42.315,73.291
				C90.218,435.092,86.181,436.174,83.024,434.351z"/>
			<path style="fill:#222859;" d="M92.309,435.914c0,3.219-2.61,5.829-5.829,5.829s-5.829-2.61-5.829-5.829s2.61-5.829,5.829-5.829
				S92.309,432.695,92.309,435.914z"/>
			<circle style="fill:#9DC9DD;" cx="86.48" cy="435.914" r="2.654"/>
			<path style="fill:#495E84;" d="M109.38,346.283L67.253,417.51c-0.768,1.298,1.248,2.493,2.017,1.193l42.127-71.228
				C112.165,346.177,110.149,344.982,109.38,346.283z"/>
			<path style="fill:#495E84;" d="M116.916,350.456l-42.127,71.228c-0.768,1.298,1.248,2.493,2.017,1.193l42.127-71.228
				C119.701,350.352,117.685,349.156,116.916,350.456z"/>
			<path style="fill:#495E84;" d="M124.453,354.63l-42.127,71.228c-0.768,1.298,1.248,2.493,2.017,1.193l42.127-71.228
				C127.237,354.525,125.222,353.33,124.453,354.63z"/>
			<path style="fill:#697BAE;" d="M203.894,247.257c1.289,3.222-0.483,25.128-2.255,32.054c-1.772,6.926-7.57,12.886-7.57,12.886
				l-2.094,6.443c0,0,6.282,0.483,11.275-8.215c4.993-8.698,5.154-18.523,5.315-27.544c0.161-9.02-0.493-16.502-0.493-16.502
				L203.894,247.257z"/>
			<path style="fill:#697BAE;" d="M233,241.742c0,0,7.458,38.857,16.8,47.394c0,0,1.288-1.933,0.322-5.477
				c-0.966-3.544-12.403-31.732-12.725-42.846C237.397,240.814,233.758,241.22,233,241.742z"/>
		</g>
	</g>
	<g>
		<ellipse style="fill:#74A7CB;" cx="329.422" cy="430.934" rx="61.383" ry="8.877"/>
		<g>
			<polygon style="fill:#222859;" points="281.13,330.403 281.13,328.391 328.304,307.536 370.894,328.171 370.894,330.549 			"/>
			<polygon style="fill:#697BAE;" points="328.493,310.353 281.13,330.403 328.493,344.014 370.894,330.549 			"/>
			<g>
				<path style="fill:#FFCE5E;" d="M289.145,393.774c-10.58,0-19.156,8.577-19.156,19.156v0c0,10.58,8.577,19.156,19.156,19.156
					h96.642v-38.312H289.145z"/>
				<path style="fill:#FF8F3D;" d="M317.212,393.773c-10.58,0-19.156,8.577-19.156,19.156l0,0c0,10.58,8.576,19.156,19.156,19.156
					h68.574v-38.312H317.212z"/>
				<path style="fill:#FFFFFF;" d="M385.787,397.217h-66.646c-8.678,0-15.712,7.035-15.712,15.712l0,0
					c0,8.677,7.035,15.712,15.712,15.712h66.646V397.217z"/>
				<path style="fill:#697BAE;" d="M363.382,368.904c8.805,0,15.943,5.567,15.943,12.435v0c0,6.867-7.138,12.435-15.943,12.435
					h-80.429v-24.869H363.382z"/>
				<path style="fill:#222859;" d="M355.204,381.339L355.204,381.339c0-6.868-7.138-12.435-15.943-12.435h-56.308v24.869h56.308
					C348.066,393.774,355.204,388.207,355.204,381.339z"/>
				<path style="fill:#FFFFFF;" d="M282.953,371.14h55.465c7.222,0,13.077,4.566,13.077,10.199l0,0
					c0,5.633-5.855,10.199-13.077,10.199h-55.465V371.14z"/>
				<path style="fill:#74A7CB;" d="M298.805,349.124c-6.572,0-11.899,4.428-11.899,9.89v0c0,5.462,5.327,9.89,11.899,9.89h60.03
					v-19.78H298.805z"/>
				<path style="fill:#697BAE;" d="M315.876,349.124c-6.572,0-11.899,4.428-11.899,9.89l0,0c0,5.462,5.328,9.89,11.899,9.89h42.959
					v-19.78H315.876z"/>
				<path style="fill:#FFFFFF;" d="M358.835,350.902h-41.398c-5.39,0-9.76,3.632-9.76,8.112l0,0c0,4.48,4.37,8.112,9.76,8.112
					h41.398V350.902z"/>
				<g>
					<path style="fill:#D5F2F9;" d="M312.57,402.309c3.163,0.047,6.325,0.047,9.488,0.053c6.163,0.013,12.326,0.023,18.49,0.02
						c12.408-0.007,24.815-0.022,37.223-0.018c2.672,0.001,5.345,0.002,8.017,0.003v-1.346c-1.943,0.001-3.885,0.001-5.828,0.002
						c-6.163,0.002-12.326-0.002-18.489-0.006c-12.408-0.007-24.815-0.023-37.222,0.003c-3.406,0.007-6.813-0.014-10.218,0.036
						c-1.704,0.025-3.452-0.019-5.19,0.028c-0.415,0.361-0.808,0.744-1.183,1.147C309.295,402.312,310.947,402.285,312.57,402.309z"
						/>
					<path style="fill:#D5F2F9;" d="M385.787,422.292c-3.033,0.019-6.065,0.068-9.085,0.066c-6.546-0.006-13.092-0.012-19.638-0.018
						c-12.93-0.011-25.86,0.018-38.79,0.028c-3.717,0.003-7.435,0.033-11.152,0.055c-0.16,0.001-0.321-0.001-0.481,0
						c0.268,0.353,0.551,0.693,0.848,1.022c2.706,0.017,5.412,0.035,8.118,0.048c6.546,0.032,13.092,0.012,19.638,0.017
						c12.93,0.01,25.86,0.011,38.79-0.001c3.903-0.004,7.829,0.078,11.751,0.093V422.292z"/>
					<path style="fill:#D5F2F9;" d="M335.245,416.497c12.93,0.01,25.86,0.011,38.79,0c3.903-0.004,7.829,0.074,11.751,0.088v-1.306
						c-3.033,0.02-6.066,0.069-9.085,0.066c-6.546-0.006-13.092-0.012-19.638-0.018c-12.93-0.012-25.86,0.018-38.79,0.028
						c-3.717,0.003-7.435,0.033-11.152,0.055c-1.156,0.007-2.317,0.003-3.479,0.001c0.054,0.34,0.112,0.677,0.188,1.009
						c0.694,0,1.388-0.001,2.079,0.003c3.233,0.019,6.465,0.042,9.698,0.058C322.153,416.512,328.699,416.492,335.245,416.497z"/>
					<path style="fill:#D5F2F9;" d="M305.91,409.41c3.233,0.019,6.465,0.042,9.698,0.058c6.546,0.032,13.092,0.012,19.638,0.017
						c12.93,0.01,25.86,0.012,38.79,0c3.903-0.004,7.829,0.073,11.751,0.086v-1.303c-3.033,0.019-6.065,0.068-9.085,0.065
						c-6.546-0.006-13.092-0.012-19.638-0.018c-12.93-0.011-25.86,0.018-38.79,0.028c-3.717,0.003-7.435,0.033-11.152,0.055
						c-1.005,0.006-2.014,0.002-3.024,0c-0.1,0.331-0.181,0.67-0.26,1.009C304.53,409.407,305.221,409.405,305.91,409.41z"/>
				</g>
				<g>
					<path style="fill:#D5F2F9;" d="M282.953,373.803c1.09-0.008,2.182-0.02,3.269-0.019c5.872,0.004,11.744,0.009,17.616,0.013
						c11.599,0.008,23.199-0.013,34.798-0.019c2.83-0.002,5.661-0.018,8.491-0.032c-0.367-0.256-0.75-0.498-1.152-0.721
						c-1.649-0.008-3.298-0.016-4.947-0.023c-5.872-0.022-11.744-0.008-17.616-0.012c-11.599-0.007-23.198-0.008-34.797,0
						c-1.882,0.001-3.771-0.015-5.661-0.032V373.803z"/>
					<path style="fill:#D5F2F9;" d="M343.754,387.613c-2.837-0.032-5.674-0.032-8.511-0.037c-5.529-0.009-11.058-0.016-16.586-0.014
						c-11.13,0.005-22.261,0.016-33.391,0.012c-0.77,0-1.541,0-2.311-0.001v0.926c0.116,0,0.231,0,0.347,0
						c5.529-0.002,11.057,0.001,16.586,0.004c11.131,0.005,22.261,0.016,33.391-0.002c3.055-0.005,6.111,0.009,9.166-0.025
						c1.758-0.02,3.567,0.021,5.356-0.041c0.292-0.235,0.57-0.481,0.833-0.737C347.008,387.616,345.365,387.631,343.754,387.613z"/>
					<path style="fill:#D5F2F9;" d="M303.838,378.634c11.599,0.008,23.199-0.012,34.798-0.019c3.335-0.002,6.67-0.023,10.004-0.038
						c0.783-0.004,1.569-0.001,2.356,0c-0.085-0.237-0.183-0.468-0.29-0.698c-0.326,0-0.654,0.001-0.979-0.001
						c-2.9-0.013-5.8-0.029-8.699-0.04c-5.872-0.022-11.744-0.009-17.616-0.012c-11.599-0.007-23.198-0.008-34.797,0
						c-1.882,0.001-3.771-0.015-5.661-0.031v0.838c1.091-0.008,2.181-0.013,3.269-0.013
						C292.094,378.625,297.966,378.63,303.838,378.634z"/>
					<path style="fill:#D5F2F9;" d="M349.728,382.715c-2.9-0.013-5.8-0.029-8.699-0.04c-5.872-0.022-11.744-0.008-17.616-0.012
						c-11.599-0.007-23.198-0.008-34.797,0c-1.882,0.001-3.771-0.014-5.661-0.031v0.838c1.091-0.008,2.181-0.014,3.269-0.013
						c5.872,0.004,11.744,0.008,17.616,0.012c11.599,0.008,23.199-0.012,34.798-0.019c3.335-0.002,6.67-0.023,10.004-0.038
						c0.858-0.004,1.72-0.001,2.583,0c0.061-0.228,0.098-0.463,0.139-0.697C350.817,382.717,350.271,382.718,349.728,382.715z"/>
				</g>
				<g>
					<path style="fill:#D5F2F9;" d="M313.789,353.439c1.872,0.027,3.743,0.027,5.615,0.032c3.648,0.008,7.295,0.013,10.943,0.011
						c7.343-0.004,14.686-0.013,22.03-0.011c2.016,0.001,4.032,0.001,6.047,0.002c0.136,0,0.274,0.003,0.41,0.004v-0.802
						c-1.721,0.001-3.441,0.001-5.162,0.002c-3.648,0.001-7.295-0.001-10.943-0.003c-7.343-0.004-14.686-0.013-22.03,0.002
						c-2.016,0.004-4.032-0.008-6.047,0.021c-1.113,0.016-2.257-0.008-3.391,0.036c-0.286,0.195-0.556,0.404-0.813,0.624
						C311.56,353.438,312.686,353.422,313.789,353.439z"/>
					<path style="fill:#D5F2F9;" d="M358.835,365.273c-2.365-0.009-4.734,0.033-7.09,0.031c-3.874-0.004-7.748-0.007-11.622-0.011
						c-7.652-0.007-15.305,0.011-22.958,0.016c-1.944,0.002-3.888,0.017-5.831,0.029c0.34,0.227,0.701,0.43,1.075,0.618
						c1.059,0.007,2.119,0.014,3.178,0.019c3.874,0.019,7.748,0.007,11.622,0.01c7.652,0.006,15.305,0.007,22.958,0
						c2.878-0.003,5.778,0.07,8.668,0.049V365.273z"/>
					<path style="fill:#D5F2F9;" d="M327.21,361.836c7.652,0.006,15.305,0.007,22.958,0c2.878-0.003,5.778,0.068,8.668,0.047v-0.757
						c-2.365-0.009-4.734,0.031-7.09,0.029c-3.874-0.004-7.748-0.007-11.622-0.011c-7.652-0.007-15.305,0.011-22.958,0.016
						c-2.2,0.002-4.4,0.019-6.6,0.033c-0.837,0.005-1.679,0-2.521,0.002c0.068,0.202,0.146,0.4,0.232,0.595
						c0.525,0,1.049-0.001,1.572,0.002c1.913,0.012,3.826,0.025,5.74,0.034C319.461,361.845,323.335,361.833,327.21,361.836z"/>
					<path style="fill:#D5F2F9;" d="M309.848,357.641c1.913,0.011,3.826,0.025,5.74,0.034c3.874,0.019,7.748,0.007,11.622,0.01
						c7.652,0.006,15.305,0.007,22.958,0c2.878-0.003,5.778,0.068,8.668,0.046v-0.768c-2.365-0.009-4.734,0.043-7.09,0.041
						c-3.874-0.004-7.748-0.007-11.622-0.011c-7.652-0.007-15.305,0.011-22.958,0.017c-2.2,0.002-4.4,0.019-6.6,0.033
						c-0.859,0.005-1.722,0-2.586,0.002c-0.059,0.195-0.11,0.392-0.151,0.592C308.502,357.639,309.176,357.637,309.848,357.641z"/>
				</g>
			</g>
			<path style="fill:#222859;" d="M347.695,349.124h-43.026l-5.174-20.916c0,0,25.444-8.195,54.274-1.171L347.695,349.124z"/>
			<path style="fill:#FFCE5E;" d="M348.931,334.76c0.235-0.806,0.112-1.796-0.349-2.504c-0.125-0.192-0.268-0.367-0.425-0.526
				c-0.136-0.227-0.308-0.431-0.533-0.578c0.448-2.945,0.886-5.915,0.841-8.9c-0.022-1.468-0.191-2.966-0.534-4.395
				c-0.27-1.121-0.595-2.415-1.668-3.019c-0.658-0.37-1.437,0.549-0.832,1.079c0.805,0.705,0.839,2.366,0.945,3.352
				c0.134,1.236,0.154,2.491,0.116,3.734c-0.079,2.587-0.497,5.143-0.934,7.689c-0.019,0.11-0.025,0.226-0.018,0.341
				c-0.595,0.217-1.115,0.668-1.437,1.199c-0.277,0.457-0.392,0.998-0.41,1.528c-0.01,0.287,0.036,0.618,0.154,0.91
				c0.018,0.063,0.03,0.126,0.053,0.188c0.046,0.12,0.092,0.241,0.147,0.358c-0.153,0.173-0.298,0.349-0.431,0.521
				c-0.46,0.598-0.825,1.233-1.097,1.937c-0.255,0.66-0.385,1.385-0.353,2.093c0.037,0.803,0.286,1.925,1.157,2.205
				c0.143,0.046,0.313,0.031,0.469-0.025c0.013,0.053,0.017,0.107,0.031,0.16c0.167,0.622,0.398,1.349,0.92,1.759
				c0.358,0.282,0.833,0.355,1.189,0.025c0.298-0.277,0.341-0.741,0.254-1.124c-0.02-0.087-0.049-0.171-0.072-0.257
				c0.06-0.036,0.118-0.075,0.167-0.131c0.279-0.317,0.454-0.695,0.59-1.088c0.219,0.302,0.599,0.467,0.968,0.238
				c0.983-0.609,1.064-1.967,0.945-3.003c-0.058-0.508-0.142-0.976-0.32-1.454c-0.115-0.307-0.265-0.679-0.487-0.965
				c0.06-0.043,0.122-0.075,0.18-0.123C348.53,335.67,348.794,335.229,348.931,334.76z"/>
		</g>
	</g>
	<g>
		<path style="fill:#ED6C6B;" d="M341.547,134.37c-4.138,0-15.432-25.222,0-25.222C356.979,109.148,345.685,134.37,341.547,134.37z"
			/>
		<circle style="fill:#222859;" cx="341.547" cy="117.156" r="4.076"/>
	</g>
	<g>
		<path style="fill:#ED6C6B;" d="M215.803,164.042c-3.465,0-12.923-23.405,0-23.405
			C228.727,140.637,219.269,164.042,215.803,164.042z"/>
		<ellipse style="fill:#222859;" cx="215.803" cy="148.069" rx="3.413" ry="3.782"/>
	</g>
	<g>
		<polygon style="fill:#9DC9DD;" points="430.013,172.942 397.352,139.531 430.207,160.867 		"/>
		<polygon style="fill:#FFFFFF;" points="397.352,139.531 440.729,147.031 432.349,158.359 402.985,142.992 428.416,162.738 
			418.452,174.291 		"/>
		<polygon style="fill:#697BAE;" points="432.287,157.927 430.013,172.942 428.416,162.738 402.985,142.992 		"/>
	</g>
	<g>
		<path style="fill:#FFFFFF;" d="M349.628,210.88c-0.226,0-0.414-0.177-0.424-0.405c-0.012-0.235,0.17-0.433,0.404-0.444
			c1.399-0.066,2.781-0.27,4.108-0.606c0.228-0.06,0.458,0.08,0.516,0.307c0.058,0.227-0.08,0.459-0.307,0.516
			c-1.382,0.351-2.821,0.563-4.277,0.631C349.642,210.88,349.635,210.88,349.628,210.88z M345.394,210.686
			c-0.019,0-0.038-0.001-0.057-0.003c-1.371-0.183-2.787-0.485-4.208-0.898c-0.225-0.066-0.355-0.301-0.289-0.527
			c0.065-0.226,0.297-0.356,0.527-0.289c1.381,0.401,2.755,0.695,4.084,0.872c0.232,0.032,0.396,0.245,0.365,0.478
			C345.786,210.531,345.603,210.686,345.394,210.686z M357.797,208.791c-0.157,0-0.307-0.087-0.381-0.237
			c-0.104-0.211-0.018-0.465,0.193-0.568c1.217-0.599,2.405-1.336,3.532-2.192c0.188-0.141,0.454-0.105,0.595,0.081
			c0.142,0.187,0.105,0.454-0.081,0.595c-1.171,0.888-2.406,1.655-3.672,2.277C357.924,208.777,357.86,208.791,357.797,208.791z
			 M337.257,208.36c-0.056,0-0.113-0.011-0.168-0.035c-1.265-0.544-2.558-1.183-3.845-1.899c-0.205-0.114-0.279-0.372-0.164-0.577
			c0.114-0.206,0.373-0.279,0.577-0.164c1.262,0.702,2.53,1.328,3.767,1.861c0.216,0.092,0.315,0.342,0.222,0.557
			C337.578,208.264,337.421,208.36,337.257,208.36z M329.836,204.252c-0.082,0-0.165-0.023-0.237-0.073
			c-1.153-0.778-2.315-1.626-3.454-2.523c-0.184-0.145-0.216-0.411-0.07-0.596c0.145-0.184,0.412-0.215,0.596-0.07
			c1.122,0.883,2.268,1.719,3.403,2.486c0.195,0.131,0.246,0.395,0.115,0.589C330.106,204.186,329.972,204.252,329.836,204.252z
			 M364.553,203.722c-0.106,0-0.212-0.039-0.294-0.119c-0.169-0.163-0.174-0.431-0.012-0.6c0.957-0.995,1.897-2.056,2.793-3.152
			c0.148-0.182,0.415-0.208,0.597-0.06c0.182,0.148,0.208,0.415,0.06,0.597c-0.911,1.113-1.865,2.191-2.838,3.203
			C364.777,203.678,364.665,203.722,364.553,203.722z M323.157,199.011c-0.101,0-0.202-0.036-0.284-0.109
			c-1.038-0.931-2.079-1.922-3.094-2.946c-0.165-0.166-0.163-0.436,0.003-0.6c0.166-0.166,0.436-0.163,0.6,0.003
			c1.003,1.012,2.031,1.991,3.057,2.911c0.174,0.157,0.189,0.425,0.032,0.6C323.39,198.964,323.273,199.011,323.157,199.011z
			 M369.929,197.157c-0.085,0-0.169-0.025-0.243-0.076c-0.193-0.134-0.24-0.399-0.105-0.591c0.8-1.147,1.567-2.34,2.278-3.545
			c0.12-0.202,0.382-0.268,0.581-0.15c0.202,0.119,0.27,0.38,0.15,0.581c-0.723,1.224-1.501,2.435-2.313,3.6
			C370.194,197.094,370.062,197.157,369.929,197.157z M317.177,192.985c-0.117,0-0.233-0.048-0.318-0.143
			c-0.935-1.052-1.861-2.149-2.753-3.262c-0.147-0.183-0.118-0.45,0.066-0.596c0.182-0.147,0.449-0.118,0.596,0.066
			c0.883,1.101,1.801,2.188,2.726,3.229c0.156,0.175,0.14,0.444-0.036,0.6C317.378,192.95,317.277,192.985,317.177,192.985z
			 M374.238,189.847c-0.063,0-0.126-0.014-0.187-0.043c-0.211-0.103-0.298-0.357-0.195-0.568c0.623-1.275,1.192-2.572,1.692-3.857
			c0.085-0.218,0.332-0.328,0.55-0.241c0.218,0.085,0.327,0.331,0.241,0.55c-0.508,1.306-1.087,2.626-1.72,3.921
			C374.545,189.759,374.394,189.847,374.238,189.847z M311.862,186.36c-0.131,0-0.261-0.061-0.344-0.176
			c-0.828-1.146-1.64-2.331-2.413-3.521c-0.128-0.197-0.072-0.46,0.124-0.587c0.195-0.127,0.46-0.073,0.587,0.124
			c0.766,1.178,1.57,2.351,2.39,3.486c0.138,0.19,0.095,0.456-0.095,0.593C312.035,186.334,311.948,186.36,311.862,186.36z
			 M377.305,181.936c-0.039,0-0.078-0.005-0.117-0.017c-0.226-0.065-0.356-0.3-0.291-0.525c0.392-1.366,0.715-2.743,0.959-4.092
			c0.041-0.232,0.267-0.38,0.493-0.343c0.23,0.042,0.384,0.263,0.342,0.493c-0.25,1.378-0.579,2.783-0.979,4.175
			C377.66,181.815,377.49,181.936,377.305,181.936z M307.24,179.238c-0.146,0-0.289-0.076-0.368-0.212
			c-0.288-0.496-0.57-0.994-0.844-1.494c-0.411-0.745-0.832-1.474-1.262-2.188c-0.121-0.201-0.056-0.462,0.144-0.582
			c0.2-0.12,0.46-0.056,0.583,0.144c0.435,0.722,0.861,1.461,1.277,2.216c0.273,0.494,0.552,0.986,0.836,1.477
			c0.118,0.203,0.048,0.463-0.154,0.581C307.385,179.22,307.313,179.238,307.24,179.238z M378.791,173.589
			c-0.009,0-0.019,0-0.028-0.001c-0.234-0.015-0.411-0.216-0.397-0.451c0.046-0.71,0.068-1.42,0.067-2.111
			c0-0.7-0.023-1.398-0.068-2.078c-0.016-0.234,0.162-0.436,0.396-0.452c0.246-0.017,0.436,0.161,0.452,0.396
			c0.046,0.698,0.07,1.416,0.07,2.133c0.001,0.709-0.022,1.437-0.069,2.166C379.2,173.417,379.012,173.589,378.791,173.589z
			 M233.321,173.04c-0.217,0-0.403-0.167-0.422-0.388c-0.021-0.233,0.153-0.44,0.387-0.459c1.377-0.119,2.753-0.373,4.088-0.755
			c0.227-0.069,0.461,0.066,0.525,0.291c0.065,0.226-0.066,0.461-0.291,0.525c-1.388,0.397-2.817,0.66-4.249,0.785
			C233.346,173.039,233.333,173.04,233.321,173.04z M229.082,173.01c-0.014,0-0.028-0.001-0.043-0.003
			c-1.406-0.139-2.833-0.406-4.241-0.793c-0.226-0.062-0.359-0.296-0.297-0.523c0.062-0.226,0.294-0.357,0.523-0.297
			c1.361,0.374,2.74,0.633,4.1,0.767c0.233,0.023,0.403,0.231,0.38,0.465C229.482,172.847,229.298,173.01,229.082,173.01z
			 M302.818,171.991c-0.134,0-0.265-0.063-0.348-0.181c-0.817-1.166-1.674-2.295-2.546-3.357c-0.149-0.181-0.124-0.449,0.058-0.597
			c0.18-0.15,0.449-0.123,0.597,0.058c0.887,1.077,1.757,2.224,2.586,3.408c0.135,0.192,0.088,0.457-0.104,0.591
			C302.987,171.966,302.903,171.991,302.818,171.991z M220.918,170.788c-0.059,0-0.118-0.012-0.175-0.037
			c-2.348-1.06-3.731-2.067-3.789-2.109c-0.189-0.138-0.23-0.405-0.091-0.594c0.139-0.189,0.407-0.228,0.594-0.091
			c0.013,0.01,1.375,1,3.636,2.02c0.213,0.097,0.309,0.348,0.212,0.562C221.234,170.695,221.08,170.788,220.918,170.788z
			 M241.44,170.729c-0.156,0-0.306-0.086-0.38-0.236c-0.105-0.21-0.019-0.464,0.191-0.569c1.212-0.604,2.412-1.331,3.567-2.163
			c0.188-0.139,0.454-0.095,0.592,0.096c0.138,0.19,0.094,0.455-0.096,0.592c-1.193,0.859-2.433,1.611-3.685,2.234
			C241.569,170.715,241.504,170.729,241.44,170.729z M248.333,165.822c-0.116,0-0.232-0.047-0.316-0.141
			c-0.157-0.175-0.142-0.444,0.032-0.6c1.081-0.969,2.186-1.889,3.284-2.739c0.184-0.143,0.451-0.11,0.596,0.076
			c0.143,0.186,0.109,0.452-0.076,0.596c-1.082,0.837-2.171,1.745-3.236,2.699C248.535,165.787,248.434,165.822,248.333,165.822z
			 M297.419,165.445c-0.11,0-0.221-0.042-0.304-0.128c-0.994-1.018-2.029-1.981-3.077-2.862c-0.179-0.152-0.202-0.42-0.052-0.599
			c0.152-0.179,0.419-0.202,0.599-0.051c1.068,0.9,2.123,1.882,3.137,2.919c0.164,0.167,0.161,0.436-0.007,0.6
			C297.633,165.404,297.526,165.445,297.419,165.445z M378.21,165.144c-0.196,0-0.372-0.137-0.415-0.336
			c-0.291-1.369-0.688-2.717-1.178-4.005c-0.084-0.219,0.027-0.464,0.245-0.547c0.217-0.084,0.465,0.025,0.547,0.245
			c0.507,1.329,0.916,2.718,1.216,4.13c0.049,0.23-0.098,0.455-0.327,0.504C378.269,165.141,378.239,165.144,378.21,165.144z
			 M255.055,160.646c-0.139,0-0.275-0.068-0.357-0.194c-0.127-0.197-0.071-0.459,0.126-0.587c1.223-0.791,2.469-1.517,3.703-2.157
			c0.208-0.108,0.464-0.026,0.573,0.182c0.108,0.208,0.026,0.465-0.182,0.573c-1.21,0.627-2.433,1.339-3.633,2.116
			C255.214,160.624,255.134,160.646,255.055,160.646z M290.925,159.999c-0.081,0-0.163-0.023-0.236-0.072
			c-1.177-0.789-2.394-1.502-3.615-2.121c-0.21-0.106-0.294-0.362-0.188-0.571c0.106-0.21,0.362-0.292,0.571-0.188
			c1.253,0.635,2.5,1.366,3.705,2.174c0.195,0.13,0.247,0.394,0.116,0.589C291.196,159.933,291.062,159.999,290.925,159.999z
			 M375.198,157.247c-0.147,0-0.289-0.076-0.368-0.213c-0.684-1.192-1.475-2.353-2.35-3.451c-0.147-0.183-0.116-0.45,0.067-0.596
			c0.182-0.147,0.45-0.116,0.596,0.067c0.902,1.131,1.718,2.329,2.423,3.557c0.117,0.203,0.046,0.463-0.157,0.58
			C375.343,157.228,375.27,157.247,375.198,157.247z M262.589,156.763c-0.17,0-0.331-0.104-0.396-0.272
			c-0.084-0.219,0.025-0.464,0.244-0.549c1.354-0.522,2.733-0.958,4.096-1.296c0.23-0.057,0.457,0.083,0.514,0.31
			c0.056,0.227-0.082,0.458-0.31,0.514c-1.329,0.33-2.673,0.756-3.995,1.265C262.692,156.754,262.639,156.763,262.589,156.763z
			 M283.361,156.192c-0.047,0-0.093-0.007-0.139-0.023c-1.322-0.459-2.679-0.823-4.035-1.083c-0.23-0.045-0.381-0.267-0.337-0.498
			c0.044-0.23,0.263-0.379,0.498-0.337c1.395,0.268,2.793,0.644,4.153,1.115c0.221,0.077,0.338,0.319,0.262,0.541
			C283.701,156.082,283.537,156.192,283.361,156.192z M270.811,154.743c-0.214,0-0.398-0.162-0.421-0.38
			c-0.025-0.234,0.144-0.443,0.377-0.467c1.033-0.109,2.072-0.164,3.09-0.164c0.008,0,0.016,0,0.023,0
			c0.399,0,0.796,0.008,1.193,0.024c0.234,0.01,0.416,0.207,0.407,0.442c-0.01,0.234-0.204,0.409-0.442,0.407
			c-0.392-0.016-0.8-0.054-1.18-0.024c-0.989,0-1.998,0.054-3.001,0.159C270.841,154.743,270.826,154.743,270.811,154.743z
			 M369.941,150.624c-0.105,0-0.21-0.039-0.292-0.116c-0.984-0.934-2.066-1.838-3.215-2.689c-0.188-0.139-0.228-0.405-0.088-0.594
			c0.139-0.187,0.406-0.226,0.594-0.088c1.176,0.871,2.284,1.797,3.293,2.754c0.17,0.162,0.177,0.431,0.017,0.601
			C370.166,150.579,370.054,150.624,369.941,150.624z M363.147,145.568c-0.074,0-0.148-0.019-0.216-0.059
			c-1.168-0.688-2.418-1.349-3.717-1.966c-0.211-0.1-0.302-0.353-0.201-0.566c0.1-0.211,0.355-0.302,0.566-0.201
			c1.321,0.627,2.594,1.301,3.784,2.001c0.202,0.119,0.27,0.379,0.15,0.581C363.434,145.493,363.292,145.568,363.147,145.568z
			 M355.496,141.914c-0.051,0-0.102-0.009-0.153-0.028c-1.267-0.488-2.607-0.955-3.982-1.387c-0.224-0.07-0.348-0.309-0.279-0.532
			c0.071-0.224,0.311-0.352,0.533-0.278c1.393,0.437,2.75,0.909,4.033,1.403c0.219,0.085,0.328,0.33,0.244,0.549
			C355.827,141.811,355.666,141.914,355.496,141.914z M347.403,139.366c-0.034,0-0.07-0.004-0.104-0.013
			c-1.324-0.336-2.71-0.652-4.119-0.94c-0.23-0.047-0.378-0.271-0.332-0.501c0.047-0.23,0.275-0.38,0.501-0.332
			c1.423,0.291,2.822,0.61,4.159,0.95c0.227,0.057,0.365,0.289,0.307,0.516C347.766,139.239,347.593,139.366,347.403,139.366z"/>
	</g>
	<g>
		<path style="fill:#FFFFFF;" d="M375.892,261.277h48.95c2.599,0,3.29-3.416,2.266-5.424c-1.024-2.008-4.594-2.663-6.521-1.197
			c0.654-2.696-0.834-5.669-3.584-7.161c-2.75-1.492-6.586-1.408-9.24,0.204c0.091-2.503-0.267-5.082-1.66-7.295
			c-1.393-2.213-3.958-4.008-6.921-4.262c-3.955-0.339-7.642,2.127-9.392,5.127c-1.75,3-1.982,6.443-2.182,9.781
			c0.504-1.367-1.141-2.831-2.844-2.798c-1.703,0.033-3.149,1.212-3.702,2.565c-0.553,1.354-0.376,2.841-0.024,4.241
			c-0.686-2.15-4.481-2.794-6.448-1.304C372.622,255.243,374.33,259.48,375.892,261.277z"/>
		<path style="fill:#FFFFFF;" d="M143.087,179.882h47.594c2.527,0,3.199-3.321,2.203-5.273c-0.996-1.952-4.467-2.59-6.341-1.164
			c0.636-2.621-0.811-5.512-3.485-6.963c-2.674-1.451-6.404-1.369-8.984,0.198c0.089-2.433-0.26-4.941-1.614-7.093
			c-1.354-2.152-3.848-3.898-6.73-4.144c-3.845-0.329-7.43,2.068-9.132,4.985c-1.702,2.917-1.927,6.265-2.122,9.51
			c0.49-1.33-1.109-2.752-2.765-2.72c-1.655,0.032-3.062,1.178-3.6,2.494c-0.538,1.316-0.365,2.762-0.023,4.124
			c-0.667-2.09-4.357-2.717-6.269-1.268C139.907,174.016,141.568,178.135,143.087,179.882z"/>
		<path style="fill:#FFFFFF;" d="M263.825,112.996h45.132c2.396,0,3.033-3.149,2.089-5.001c-0.944-1.851-4.236-2.456-6.013-1.104
			c0.603-2.486-0.769-5.227-3.304-6.603c-2.536-1.376-6.072-1.298-8.519,0.188c0.084-2.308-0.246-4.685-1.531-6.726
			c-1.284-2.041-3.649-3.696-6.382-3.93c-3.646-0.312-7.046,1.961-8.659,4.727c-1.614,2.766-1.827,5.941-2.012,9.018
			c0.464-1.261-1.052-2.61-2.622-2.579c-1.57,0.031-2.903,1.117-3.414,2.365c-0.51,1.248-0.346,2.619-0.022,3.91
			c-0.632-1.982-4.131-2.576-5.945-1.203C260.81,107.433,262.385,111.339,263.825,112.996z"/>
		<path style="fill:#FFFFFF;" d="M90.281,94.978h45.132c2.396,0,3.033-3.149,2.089-5.001c-0.944-1.851-4.236-2.456-6.013-1.104
			c0.603-2.486-0.769-5.227-3.304-6.603c-2.536-1.376-6.072-1.298-8.519,0.188c0.084-2.308-0.246-4.685-1.531-6.726
			c-1.284-2.041-3.649-3.696-6.381-3.93c-3.646-0.312-7.046,1.961-8.659,4.727c-1.614,2.766-1.827,5.941-2.012,9.018
			c0.464-1.261-1.052-2.61-2.622-2.579c-1.57,0.031-2.903,1.117-3.414,2.365c-0.51,1.248-0.346,2.619-0.022,3.91
			c-0.632-1.982-4.131-2.576-5.945-1.203C87.266,89.415,88.841,93.321,90.281,94.978z"/>
		<path style="fill:#FFFFFF;" d="M28.465,309.774h41.208c2.188,0,2.77-2.876,1.907-4.566c-0.862-1.69-3.868-2.242-5.49-1.008
			c0.551-2.27-0.702-4.773-3.017-6.029c-2.315-1.256-5.544-1.185-7.778,0.171c0.077-2.107-0.225-4.278-1.398-6.141
			c-1.173-1.863-3.332-3.375-5.827-3.588c-3.329-0.285-6.433,1.791-7.906,4.316c-1.473,2.526-1.668,5.424-1.837,8.234
			c0.424-1.151-0.961-2.383-2.394-2.355c-1.433,0.028-2.651,1.02-3.117,2.16c-0.466,1.14-0.316,2.391-0.02,3.57
			c-0.577-1.81-3.772-2.352-5.428-1.098C25.712,304.694,27.15,308.261,28.465,309.774z"/>
		<path style="fill:#FFFFFF;" d="M440.987,331.585h41.208c2.188,0,2.77-2.875,1.907-4.566c-0.862-1.69-3.868-2.242-5.49-1.008
			c0.551-2.27-0.702-4.773-3.017-6.029c-2.315-1.256-5.544-1.185-7.778,0.171c0.077-2.107-0.225-4.278-1.398-6.141
			c-1.173-1.863-3.332-3.374-5.827-3.588c-3.329-0.285-6.433,1.791-7.907,4.316c-1.473,2.526-1.668,5.424-1.837,8.234
			c0.424-1.151-0.961-2.383-2.394-2.355c-1.433,0.028-2.651,1.02-3.117,2.16c-0.466,1.14-0.316,2.391-0.02,3.57
			c-0.577-1.81-3.772-2.352-5.428-1.098C438.234,326.506,439.672,330.072,440.987,331.585z"/>
		<path style="fill:#FFFFFF;" d="M256.13,310.244h33.505c1.779,0,2.252-2.338,1.551-3.712c-0.701-1.374-3.145-1.823-4.464-0.82
			c0.448-1.845-0.571-3.881-2.453-4.902s-4.508-0.964-6.324,0.139c0.063-1.713-0.183-3.478-1.136-4.993
			c-0.953-1.515-2.709-2.744-4.738-2.917c-2.707-0.232-5.231,1.456-6.429,3.509c-1.198,2.054-1.357,4.41-1.494,6.695
			c0.345-0.936-0.781-1.938-1.946-1.915c-1.165,0.023-2.155,0.829-2.534,1.756c-0.379,0.927-0.257,1.944-0.016,2.903
			c-0.469-1.471-3.067-1.913-4.413-0.893C253.891,306.114,255.06,309.014,256.13,310.244z"/>
		<path style="fill:#FFFFFF;" d="M386.222,102.917h43.739c2.322,0,2.94-3.052,2.024-4.846c-0.915-1.794-4.105-2.38-5.827-1.07
			c0.585-2.409-0.745-5.066-3.202-6.399c-2.457-1.333-5.885-1.258-8.256,0.182c0.082-2.236-0.239-4.541-1.484-6.518
			c-1.245-1.978-3.536-3.582-6.185-3.809c-3.534-0.303-6.828,1.901-8.392,4.581c-1.564,2.681-1.771,5.758-1.95,8.74
			c0.45-1.222-1.02-2.529-2.541-2.5c-1.521,0.03-2.814,1.083-3.308,2.292c-0.495,1.21-0.336,2.538-0.022,3.79
			c-0.613-1.921-4.004-2.497-5.761-1.165C383.3,97.526,384.826,101.312,386.222,102.917z"/>
	</g>
</g>
</svg>
